<mxfile host="app.diagrams.net" modified="2024-03-08T16:55:45.746Z" agent="Mozilla/5.0 (Macintosh; Intel Mac OS X 10_15_7) AppleWebKit/537.36 (KHTML, like Gecko) Chrome/122.0.0.0 Safari/537.36" etag="pnZAz45ulpq2HCgXalGQ" version="24.0.2" type="github">
  <diagram name="PÃ¡gina-1" id="O8dueFV0GRE1dsNP_xgH">
    <mxGraphModel dx="2074" dy="761" grid="1" gridSize="10" guides="1" tooltips="1" connect="1" arrows="1" fold="1" page="1" pageScale="1" pageWidth="827" pageHeight="1169" math="0" shadow="0">
      <root>
        <mxCell id="0" />
        <mxCell id="1" parent="0" />
        <mxCell id="qNzG1IiznAIY8dUd2jGB-125" value="" style="rounded=0;whiteSpace=wrap;html=1;strokeWidth=2;" parent="1" vertex="1">
          <mxGeometry x="220" y="120" width="1380" height="760" as="geometry" />
        </mxCell>
        <mxCell id="qNzG1IiznAIY8dUd2jGB-97" value="" style="rounded=1;whiteSpace=wrap;html=1;strokeColor=#59CDFF;strokeWidth=2;" parent="1" vertex="1">
          <mxGeometry x="980" y="250" width="540" height="540" as="geometry" />
        </mxCell>
        <mxCell id="qNzG1IiznAIY8dUd2jGB-4" value="&lt;b&gt;&lt;font style=&quot;font-size: 18px;&quot;&gt;SQLite3&lt;/font&gt;&lt;/b&gt;" style="text;html=1;align=center;verticalAlign=middle;whiteSpace=wrap;rounded=0;" parent="1" vertex="1">
          <mxGeometry x="1410" y="810" width="60" height="30" as="geometry" />
        </mxCell>
        <mxCell id="qNzG1IiznAIY8dUd2jGB-5" value="Users" style="shape=table;startSize=30;container=1;collapsible=1;childLayout=tableLayout;fixedRows=1;rowLines=0;fontStyle=1;align=center;resizeLast=1;html=1;" parent="1" vertex="1">
          <mxGeometry x="1290" y="520" width="180" height="180" as="geometry" />
        </mxCell>
        <mxCell id="qNzG1IiznAIY8dUd2jGB-6" value="" style="shape=tableRow;horizontal=0;startSize=0;swimlaneHead=0;swimlaneBody=0;fillColor=none;collapsible=0;dropTarget=0;points=[[0,0.5],[1,0.5]];portConstraint=eastwest;top=0;left=0;right=0;bottom=1;" parent="qNzG1IiznAIY8dUd2jGB-5" vertex="1">
          <mxGeometry y="30" width="180" height="30" as="geometry" />
        </mxCell>
        <mxCell id="qNzG1IiznAIY8dUd2jGB-7" value="PK" style="shape=partialRectangle;connectable=0;fillColor=none;top=0;left=0;bottom=0;right=0;fontStyle=1;overflow=hidden;whiteSpace=wrap;html=1;" parent="qNzG1IiznAIY8dUd2jGB-6" vertex="1">
          <mxGeometry width="30" height="30" as="geometry">
            <mxRectangle width="30" height="30" as="alternateBounds" />
          </mxGeometry>
        </mxCell>
        <mxCell id="qNzG1IiznAIY8dUd2jGB-8" value="UniqueID" style="shape=partialRectangle;connectable=0;fillColor=none;top=0;left=0;bottom=0;right=0;align=left;spacingLeft=6;fontStyle=5;overflow=hidden;whiteSpace=wrap;html=1;" parent="qNzG1IiznAIY8dUd2jGB-6" vertex="1">
          <mxGeometry x="30" width="150" height="30" as="geometry">
            <mxRectangle width="150" height="30" as="alternateBounds" />
          </mxGeometry>
        </mxCell>
        <mxCell id="qNzG1IiznAIY8dUd2jGB-9" value="" style="shape=tableRow;horizontal=0;startSize=0;swimlaneHead=0;swimlaneBody=0;fillColor=none;collapsible=0;dropTarget=0;points=[[0,0.5],[1,0.5]];portConstraint=eastwest;top=0;left=0;right=0;bottom=0;" parent="qNzG1IiznAIY8dUd2jGB-5" vertex="1">
          <mxGeometry y="60" width="180" height="30" as="geometry" />
        </mxCell>
        <mxCell id="qNzG1IiznAIY8dUd2jGB-10" value="" style="shape=partialRectangle;connectable=0;fillColor=none;top=0;left=0;bottom=0;right=0;editable=1;overflow=hidden;whiteSpace=wrap;html=1;" parent="qNzG1IiznAIY8dUd2jGB-9" vertex="1">
          <mxGeometry width="30" height="30" as="geometry">
            <mxRectangle width="30" height="30" as="alternateBounds" />
          </mxGeometry>
        </mxCell>
        <mxCell id="qNzG1IiznAIY8dUd2jGB-11" value="username" style="shape=partialRectangle;connectable=0;fillColor=none;top=0;left=0;bottom=0;right=0;align=left;spacingLeft=6;overflow=hidden;whiteSpace=wrap;html=1;" parent="qNzG1IiznAIY8dUd2jGB-9" vertex="1">
          <mxGeometry x="30" width="150" height="30" as="geometry">
            <mxRectangle width="150" height="30" as="alternateBounds" />
          </mxGeometry>
        </mxCell>
        <mxCell id="qNzG1IiznAIY8dUd2jGB-12" value="" style="shape=tableRow;horizontal=0;startSize=0;swimlaneHead=0;swimlaneBody=0;fillColor=none;collapsible=0;dropTarget=0;points=[[0,0.5],[1,0.5]];portConstraint=eastwest;top=0;left=0;right=0;bottom=0;" parent="qNzG1IiznAIY8dUd2jGB-5" vertex="1">
          <mxGeometry y="90" width="180" height="30" as="geometry" />
        </mxCell>
        <mxCell id="qNzG1IiznAIY8dUd2jGB-13" value="" style="shape=partialRectangle;connectable=0;fillColor=none;top=0;left=0;bottom=0;right=0;editable=1;overflow=hidden;whiteSpace=wrap;html=1;" parent="qNzG1IiznAIY8dUd2jGB-12" vertex="1">
          <mxGeometry width="30" height="30" as="geometry">
            <mxRectangle width="30" height="30" as="alternateBounds" />
          </mxGeometry>
        </mxCell>
        <mxCell id="qNzG1IiznAIY8dUd2jGB-14" value="email" style="shape=partialRectangle;connectable=0;fillColor=none;top=0;left=0;bottom=0;right=0;align=left;spacingLeft=6;overflow=hidden;whiteSpace=wrap;html=1;" parent="qNzG1IiznAIY8dUd2jGB-12" vertex="1">
          <mxGeometry x="30" width="150" height="30" as="geometry">
            <mxRectangle width="150" height="30" as="alternateBounds" />
          </mxGeometry>
        </mxCell>
        <mxCell id="qNzG1IiznAIY8dUd2jGB-15" value="" style="shape=tableRow;horizontal=0;startSize=0;swimlaneHead=0;swimlaneBody=0;fillColor=none;collapsible=0;dropTarget=0;points=[[0,0.5],[1,0.5]];portConstraint=eastwest;top=0;left=0;right=0;bottom=0;" parent="qNzG1IiznAIY8dUd2jGB-5" vertex="1">
          <mxGeometry y="120" width="180" height="30" as="geometry" />
        </mxCell>
        <mxCell id="qNzG1IiznAIY8dUd2jGB-16" value="" style="shape=partialRectangle;connectable=0;fillColor=none;top=0;left=0;bottom=0;right=0;editable=1;overflow=hidden;whiteSpace=wrap;html=1;" parent="qNzG1IiznAIY8dUd2jGB-15" vertex="1">
          <mxGeometry width="30" height="30" as="geometry">
            <mxRectangle width="30" height="30" as="alternateBounds" />
          </mxGeometry>
        </mxCell>
        <mxCell id="qNzG1IiznAIY8dUd2jGB-17" value="encrypted_password" style="shape=partialRectangle;connectable=0;fillColor=none;top=0;left=0;bottom=0;right=0;align=left;spacingLeft=6;overflow=hidden;whiteSpace=wrap;html=1;" parent="qNzG1IiznAIY8dUd2jGB-15" vertex="1">
          <mxGeometry x="30" width="150" height="30" as="geometry">
            <mxRectangle width="150" height="30" as="alternateBounds" />
          </mxGeometry>
        </mxCell>
        <mxCell id="qNzG1IiznAIY8dUd2jGB-57" value="" style="shape=tableRow;horizontal=0;startSize=0;swimlaneHead=0;swimlaneBody=0;fillColor=none;collapsible=0;dropTarget=0;points=[[0,0.5],[1,0.5]];portConstraint=eastwest;top=0;left=0;right=0;bottom=0;" parent="qNzG1IiznAIY8dUd2jGB-5" vertex="1">
          <mxGeometry y="150" width="180" height="30" as="geometry" />
        </mxCell>
        <mxCell id="qNzG1IiznAIY8dUd2jGB-58" value="" style="shape=partialRectangle;connectable=0;fillColor=none;top=0;left=0;bottom=0;right=0;editable=1;overflow=hidden;whiteSpace=wrap;html=1;" parent="qNzG1IiznAIY8dUd2jGB-57" vertex="1">
          <mxGeometry width="30" height="30" as="geometry">
            <mxRectangle width="30" height="30" as="alternateBounds" />
          </mxGeometry>
        </mxCell>
        <mxCell id="qNzG1IiznAIY8dUd2jGB-59" value="cash" style="shape=partialRectangle;connectable=0;fillColor=none;top=0;left=0;bottom=0;right=0;align=left;spacingLeft=6;overflow=hidden;whiteSpace=wrap;html=1;" parent="qNzG1IiznAIY8dUd2jGB-57" vertex="1">
          <mxGeometry x="30" width="150" height="30" as="geometry">
            <mxRectangle width="150" height="30" as="alternateBounds" />
          </mxGeometry>
        </mxCell>
        <mxCell id="qNzG1IiznAIY8dUd2jGB-31" value="Holdings" style="shape=table;startSize=30;container=1;collapsible=1;childLayout=tableLayout;fixedRows=1;rowLines=0;fontStyle=1;align=center;resizeLast=1;html=1;" parent="1" vertex="1">
          <mxGeometry x="1040" y="310" width="180" height="150" as="geometry" />
        </mxCell>
        <mxCell id="qNzG1IiznAIY8dUd2jGB-32" value="" style="shape=tableRow;horizontal=0;startSize=0;swimlaneHead=0;swimlaneBody=0;fillColor=none;collapsible=0;dropTarget=0;points=[[0,0.5],[1,0.5]];portConstraint=eastwest;top=0;left=0;right=0;bottom=1;" parent="qNzG1IiznAIY8dUd2jGB-31" vertex="1">
          <mxGeometry y="30" width="180" height="30" as="geometry" />
        </mxCell>
        <mxCell id="qNzG1IiznAIY8dUd2jGB-33" value="PK" style="shape=partialRectangle;connectable=0;fillColor=none;top=0;left=0;bottom=0;right=0;fontStyle=1;overflow=hidden;whiteSpace=wrap;html=1;" parent="qNzG1IiznAIY8dUd2jGB-32" vertex="1">
          <mxGeometry width="30" height="30" as="geometry">
            <mxRectangle width="30" height="30" as="alternateBounds" />
          </mxGeometry>
        </mxCell>
        <mxCell id="qNzG1IiznAIY8dUd2jGB-34" value="UniqueID" style="shape=partialRectangle;connectable=0;fillColor=none;top=0;left=0;bottom=0;right=0;align=left;spacingLeft=6;fontStyle=5;overflow=hidden;whiteSpace=wrap;html=1;" parent="qNzG1IiznAIY8dUd2jGB-32" vertex="1">
          <mxGeometry x="30" width="150" height="30" as="geometry">
            <mxRectangle width="150" height="30" as="alternateBounds" />
          </mxGeometry>
        </mxCell>
        <mxCell id="qNzG1IiznAIY8dUd2jGB-60" value="" style="shape=tableRow;horizontal=0;startSize=0;swimlaneHead=0;swimlaneBody=0;fillColor=none;collapsible=0;dropTarget=0;points=[[0,0.5],[1,0.5]];portConstraint=eastwest;top=0;left=0;right=0;bottom=1;" parent="qNzG1IiznAIY8dUd2jGB-31" vertex="1">
          <mxGeometry y="60" width="180" height="30" as="geometry" />
        </mxCell>
        <mxCell id="qNzG1IiznAIY8dUd2jGB-61" value="FK" style="shape=partialRectangle;connectable=0;fillColor=none;top=0;left=0;bottom=0;right=0;fontStyle=1;overflow=hidden;whiteSpace=wrap;html=1;" parent="qNzG1IiznAIY8dUd2jGB-60" vertex="1">
          <mxGeometry width="30" height="30" as="geometry">
            <mxRectangle width="30" height="30" as="alternateBounds" />
          </mxGeometry>
        </mxCell>
        <mxCell id="qNzG1IiznAIY8dUd2jGB-62" value="user_id" style="shape=partialRectangle;connectable=0;fillColor=none;top=0;left=0;bottom=0;right=0;align=left;spacingLeft=6;fontStyle=5;overflow=hidden;whiteSpace=wrap;html=1;" parent="qNzG1IiznAIY8dUd2jGB-60" vertex="1">
          <mxGeometry x="30" width="150" height="30" as="geometry">
            <mxRectangle width="150" height="30" as="alternateBounds" />
          </mxGeometry>
        </mxCell>
        <mxCell id="qNzG1IiznAIY8dUd2jGB-35" value="" style="shape=tableRow;horizontal=0;startSize=0;swimlaneHead=0;swimlaneBody=0;fillColor=none;collapsible=0;dropTarget=0;points=[[0,0.5],[1,0.5]];portConstraint=eastwest;top=0;left=0;right=0;bottom=0;" parent="qNzG1IiznAIY8dUd2jGB-31" vertex="1">
          <mxGeometry y="90" width="180" height="30" as="geometry" />
        </mxCell>
        <mxCell id="qNzG1IiznAIY8dUd2jGB-36" value="" style="shape=partialRectangle;connectable=0;fillColor=none;top=0;left=0;bottom=0;right=0;editable=1;overflow=hidden;whiteSpace=wrap;html=1;" parent="qNzG1IiznAIY8dUd2jGB-35" vertex="1">
          <mxGeometry width="30" height="30" as="geometry">
            <mxRectangle width="30" height="30" as="alternateBounds" />
          </mxGeometry>
        </mxCell>
        <mxCell id="qNzG1IiznAIY8dUd2jGB-37" value="ticker" style="shape=partialRectangle;connectable=0;fillColor=none;top=0;left=0;bottom=0;right=0;align=left;spacingLeft=6;overflow=hidden;whiteSpace=wrap;html=1;" parent="qNzG1IiznAIY8dUd2jGB-35" vertex="1">
          <mxGeometry x="30" width="150" height="30" as="geometry">
            <mxRectangle width="150" height="30" as="alternateBounds" />
          </mxGeometry>
        </mxCell>
        <mxCell id="qNzG1IiznAIY8dUd2jGB-38" value="" style="shape=tableRow;horizontal=0;startSize=0;swimlaneHead=0;swimlaneBody=0;fillColor=none;collapsible=0;dropTarget=0;points=[[0,0.5],[1,0.5]];portConstraint=eastwest;top=0;left=0;right=0;bottom=0;" parent="qNzG1IiznAIY8dUd2jGB-31" vertex="1">
          <mxGeometry y="120" width="180" height="30" as="geometry" />
        </mxCell>
        <mxCell id="qNzG1IiznAIY8dUd2jGB-39" value="" style="shape=partialRectangle;connectable=0;fillColor=none;top=0;left=0;bottom=0;right=0;editable=1;overflow=hidden;whiteSpace=wrap;html=1;" parent="qNzG1IiznAIY8dUd2jGB-38" vertex="1">
          <mxGeometry width="30" height="30" as="geometry">
            <mxRectangle width="30" height="30" as="alternateBounds" />
          </mxGeometry>
        </mxCell>
        <mxCell id="qNzG1IiznAIY8dUd2jGB-40" value="shares" style="shape=partialRectangle;connectable=0;fillColor=none;top=0;left=0;bottom=0;right=0;align=left;spacingLeft=6;overflow=hidden;whiteSpace=wrap;html=1;" parent="qNzG1IiznAIY8dUd2jGB-38" vertex="1">
          <mxGeometry x="30" width="150" height="30" as="geometry">
            <mxRectangle width="150" height="30" as="alternateBounds" />
          </mxGeometry>
        </mxCell>
        <mxCell id="qNzG1IiznAIY8dUd2jGB-44" value="Transactions" style="shape=table;startSize=30;container=1;collapsible=1;childLayout=tableLayout;fixedRows=1;rowLines=0;fontStyle=1;align=center;resizeLast=1;html=1;" parent="1" vertex="1">
          <mxGeometry x="1040" y="480" width="180" height="270" as="geometry" />
        </mxCell>
        <mxCell id="qNzG1IiznAIY8dUd2jGB-45" value="" style="shape=tableRow;horizontal=0;startSize=0;swimlaneHead=0;swimlaneBody=0;fillColor=none;collapsible=0;dropTarget=0;points=[[0,0.5],[1,0.5]];portConstraint=eastwest;top=0;left=0;right=0;bottom=1;" parent="qNzG1IiznAIY8dUd2jGB-44" vertex="1">
          <mxGeometry y="30" width="180" height="30" as="geometry" />
        </mxCell>
        <mxCell id="qNzG1IiznAIY8dUd2jGB-46" value="PK" style="shape=partialRectangle;connectable=0;fillColor=none;top=0;left=0;bottom=0;right=0;fontStyle=1;overflow=hidden;whiteSpace=wrap;html=1;" parent="qNzG1IiznAIY8dUd2jGB-45" vertex="1">
          <mxGeometry width="30" height="30" as="geometry">
            <mxRectangle width="30" height="30" as="alternateBounds" />
          </mxGeometry>
        </mxCell>
        <mxCell id="qNzG1IiznAIY8dUd2jGB-47" value="UniqueID" style="shape=partialRectangle;connectable=0;fillColor=none;top=0;left=0;bottom=0;right=0;align=left;spacingLeft=6;fontStyle=5;overflow=hidden;whiteSpace=wrap;html=1;" parent="qNzG1IiznAIY8dUd2jGB-45" vertex="1">
          <mxGeometry x="30" width="150" height="30" as="geometry">
            <mxRectangle width="150" height="30" as="alternateBounds" />
          </mxGeometry>
        </mxCell>
        <mxCell id="qNzG1IiznAIY8dUd2jGB-63" value="" style="shape=tableRow;horizontal=0;startSize=0;swimlaneHead=0;swimlaneBody=0;fillColor=none;collapsible=0;dropTarget=0;points=[[0,0.5],[1,0.5]];portConstraint=eastwest;top=0;left=0;right=0;bottom=1;" parent="qNzG1IiznAIY8dUd2jGB-44" vertex="1">
          <mxGeometry y="60" width="180" height="30" as="geometry" />
        </mxCell>
        <mxCell id="qNzG1IiznAIY8dUd2jGB-64" value="FK" style="shape=partialRectangle;connectable=0;fillColor=none;top=0;left=0;bottom=0;right=0;fontStyle=1;overflow=hidden;whiteSpace=wrap;html=1;" parent="qNzG1IiznAIY8dUd2jGB-63" vertex="1">
          <mxGeometry width="30" height="30" as="geometry">
            <mxRectangle width="30" height="30" as="alternateBounds" />
          </mxGeometry>
        </mxCell>
        <mxCell id="qNzG1IiznAIY8dUd2jGB-65" value="user_id" style="shape=partialRectangle;connectable=0;fillColor=none;top=0;left=0;bottom=0;right=0;align=left;spacingLeft=6;fontStyle=5;overflow=hidden;whiteSpace=wrap;html=1;" parent="qNzG1IiznAIY8dUd2jGB-63" vertex="1">
          <mxGeometry x="30" width="150" height="30" as="geometry">
            <mxRectangle width="150" height="30" as="alternateBounds" />
          </mxGeometry>
        </mxCell>
        <mxCell id="qNzG1IiznAIY8dUd2jGB-48" value="" style="shape=tableRow;horizontal=0;startSize=0;swimlaneHead=0;swimlaneBody=0;fillColor=none;collapsible=0;dropTarget=0;points=[[0,0.5],[1,0.5]];portConstraint=eastwest;top=0;left=0;right=0;bottom=0;" parent="qNzG1IiznAIY8dUd2jGB-44" vertex="1">
          <mxGeometry y="90" width="180" height="30" as="geometry" />
        </mxCell>
        <mxCell id="qNzG1IiznAIY8dUd2jGB-49" value="" style="shape=partialRectangle;connectable=0;fillColor=none;top=0;left=0;bottom=0;right=0;editable=1;overflow=hidden;whiteSpace=wrap;html=1;" parent="qNzG1IiznAIY8dUd2jGB-48" vertex="1">
          <mxGeometry width="30" height="30" as="geometry">
            <mxRectangle width="30" height="30" as="alternateBounds" />
          </mxGeometry>
        </mxCell>
        <mxCell id="qNzG1IiznAIY8dUd2jGB-50" value="ticker" style="shape=partialRectangle;connectable=0;fillColor=none;top=0;left=0;bottom=0;right=0;align=left;spacingLeft=6;overflow=hidden;whiteSpace=wrap;html=1;" parent="qNzG1IiznAIY8dUd2jGB-48" vertex="1">
          <mxGeometry x="30" width="150" height="30" as="geometry">
            <mxRectangle width="150" height="30" as="alternateBounds" />
          </mxGeometry>
        </mxCell>
        <mxCell id="qNzG1IiznAIY8dUd2jGB-51" value="" style="shape=tableRow;horizontal=0;startSize=0;swimlaneHead=0;swimlaneBody=0;fillColor=none;collapsible=0;dropTarget=0;points=[[0,0.5],[1,0.5]];portConstraint=eastwest;top=0;left=0;right=0;bottom=0;" parent="qNzG1IiznAIY8dUd2jGB-44" vertex="1">
          <mxGeometry y="120" width="180" height="30" as="geometry" />
        </mxCell>
        <mxCell id="qNzG1IiznAIY8dUd2jGB-52" value="" style="shape=partialRectangle;connectable=0;fillColor=none;top=0;left=0;bottom=0;right=0;editable=1;overflow=hidden;whiteSpace=wrap;html=1;" parent="qNzG1IiznAIY8dUd2jGB-51" vertex="1">
          <mxGeometry width="30" height="30" as="geometry">
            <mxRectangle width="30" height="30" as="alternateBounds" />
          </mxGeometry>
        </mxCell>
        <mxCell id="qNzG1IiznAIY8dUd2jGB-53" value="operation" style="shape=partialRectangle;connectable=0;fillColor=none;top=0;left=0;bottom=0;right=0;align=left;spacingLeft=6;overflow=hidden;whiteSpace=wrap;html=1;" parent="qNzG1IiznAIY8dUd2jGB-51" vertex="1">
          <mxGeometry x="30" width="150" height="30" as="geometry">
            <mxRectangle width="150" height="30" as="alternateBounds" />
          </mxGeometry>
        </mxCell>
        <mxCell id="qNzG1IiznAIY8dUd2jGB-54" value="" style="shape=tableRow;horizontal=0;startSize=0;swimlaneHead=0;swimlaneBody=0;fillColor=none;collapsible=0;dropTarget=0;points=[[0,0.5],[1,0.5]];portConstraint=eastwest;top=0;left=0;right=0;bottom=0;" parent="qNzG1IiznAIY8dUd2jGB-44" vertex="1">
          <mxGeometry y="150" width="180" height="30" as="geometry" />
        </mxCell>
        <mxCell id="qNzG1IiznAIY8dUd2jGB-55" value="" style="shape=partialRectangle;connectable=0;fillColor=none;top=0;left=0;bottom=0;right=0;editable=1;overflow=hidden;whiteSpace=wrap;html=1;" parent="qNzG1IiznAIY8dUd2jGB-54" vertex="1">
          <mxGeometry width="30" height="30" as="geometry">
            <mxRectangle width="30" height="30" as="alternateBounds" />
          </mxGeometry>
        </mxCell>
        <mxCell id="qNzG1IiznAIY8dUd2jGB-56" value="shares" style="shape=partialRectangle;connectable=0;fillColor=none;top=0;left=0;bottom=0;right=0;align=left;spacingLeft=6;overflow=hidden;whiteSpace=wrap;html=1;" parent="qNzG1IiznAIY8dUd2jGB-54" vertex="1">
          <mxGeometry x="30" width="150" height="30" as="geometry">
            <mxRectangle width="150" height="30" as="alternateBounds" />
          </mxGeometry>
        </mxCell>
        <mxCell id="qNzG1IiznAIY8dUd2jGB-66" value="" style="shape=tableRow;horizontal=0;startSize=0;swimlaneHead=0;swimlaneBody=0;fillColor=none;collapsible=0;dropTarget=0;points=[[0,0.5],[1,0.5]];portConstraint=eastwest;top=0;left=0;right=0;bottom=0;" parent="qNzG1IiznAIY8dUd2jGB-44" vertex="1">
          <mxGeometry y="180" width="180" height="30" as="geometry" />
        </mxCell>
        <mxCell id="qNzG1IiznAIY8dUd2jGB-67" value="" style="shape=partialRectangle;connectable=0;fillColor=none;top=0;left=0;bottom=0;right=0;editable=1;overflow=hidden;whiteSpace=wrap;html=1;" parent="qNzG1IiznAIY8dUd2jGB-66" vertex="1">
          <mxGeometry width="30" height="30" as="geometry">
            <mxRectangle width="30" height="30" as="alternateBounds" />
          </mxGeometry>
        </mxCell>
        <mxCell id="qNzG1IiznAIY8dUd2jGB-68" value="share_price" style="shape=partialRectangle;connectable=0;fillColor=none;top=0;left=0;bottom=0;right=0;align=left;spacingLeft=6;overflow=hidden;whiteSpace=wrap;html=1;" parent="qNzG1IiznAIY8dUd2jGB-66" vertex="1">
          <mxGeometry x="30" width="150" height="30" as="geometry">
            <mxRectangle width="150" height="30" as="alternateBounds" />
          </mxGeometry>
        </mxCell>
        <mxCell id="qNzG1IiznAIY8dUd2jGB-69" value="" style="shape=tableRow;horizontal=0;startSize=0;swimlaneHead=0;swimlaneBody=0;fillColor=none;collapsible=0;dropTarget=0;points=[[0,0.5],[1,0.5]];portConstraint=eastwest;top=0;left=0;right=0;bottom=0;" parent="qNzG1IiznAIY8dUd2jGB-44" vertex="1">
          <mxGeometry y="210" width="180" height="30" as="geometry" />
        </mxCell>
        <mxCell id="qNzG1IiznAIY8dUd2jGB-70" value="" style="shape=partialRectangle;connectable=0;fillColor=none;top=0;left=0;bottom=0;right=0;editable=1;overflow=hidden;whiteSpace=wrap;html=1;" parent="qNzG1IiznAIY8dUd2jGB-69" vertex="1">
          <mxGeometry width="30" height="30" as="geometry">
            <mxRectangle width="30" height="30" as="alternateBounds" />
          </mxGeometry>
        </mxCell>
        <mxCell id="qNzG1IiznAIY8dUd2jGB-71" value="fee" style="shape=partialRectangle;connectable=0;fillColor=none;top=0;left=0;bottom=0;right=0;align=left;spacingLeft=6;overflow=hidden;whiteSpace=wrap;html=1;" parent="qNzG1IiznAIY8dUd2jGB-69" vertex="1">
          <mxGeometry x="30" width="150" height="30" as="geometry">
            <mxRectangle width="150" height="30" as="alternateBounds" />
          </mxGeometry>
        </mxCell>
        <mxCell id="qNzG1IiznAIY8dUd2jGB-72" value="" style="shape=tableRow;horizontal=0;startSize=0;swimlaneHead=0;swimlaneBody=0;fillColor=none;collapsible=0;dropTarget=0;points=[[0,0.5],[1,0.5]];portConstraint=eastwest;top=0;left=0;right=0;bottom=0;" parent="qNzG1IiznAIY8dUd2jGB-44" vertex="1">
          <mxGeometry y="240" width="180" height="30" as="geometry" />
        </mxCell>
        <mxCell id="qNzG1IiznAIY8dUd2jGB-73" value="" style="shape=partialRectangle;connectable=0;fillColor=none;top=0;left=0;bottom=0;right=0;editable=1;overflow=hidden;whiteSpace=wrap;html=1;" parent="qNzG1IiznAIY8dUd2jGB-72" vertex="1">
          <mxGeometry width="30" height="30" as="geometry">
            <mxRectangle width="30" height="30" as="alternateBounds" />
          </mxGeometry>
        </mxCell>
        <mxCell id="qNzG1IiznAIY8dUd2jGB-74" value="transaction_date" style="shape=partialRectangle;connectable=0;fillColor=none;top=0;left=0;bottom=0;right=0;align=left;spacingLeft=6;overflow=hidden;whiteSpace=wrap;html=1;" parent="qNzG1IiznAIY8dUd2jGB-72" vertex="1">
          <mxGeometry x="30" width="150" height="30" as="geometry">
            <mxRectangle width="150" height="30" as="alternateBounds" />
          </mxGeometry>
        </mxCell>
        <mxCell id="qNzG1IiznAIY8dUd2jGB-78" value="Tickers" style="shape=table;startSize=30;container=1;collapsible=1;childLayout=tableLayout;fixedRows=1;rowLines=0;fontStyle=1;align=center;resizeLast=1;html=1;" parent="1" vertex="1">
          <mxGeometry x="1290" y="310" width="180" height="180" as="geometry" />
        </mxCell>
        <mxCell id="qNzG1IiznAIY8dUd2jGB-79" value="" style="shape=tableRow;horizontal=0;startSize=0;swimlaneHead=0;swimlaneBody=0;fillColor=none;collapsible=0;dropTarget=0;points=[[0,0.5],[1,0.5]];portConstraint=eastwest;top=0;left=0;right=0;bottom=1;" parent="qNzG1IiznAIY8dUd2jGB-78" vertex="1">
          <mxGeometry y="30" width="180" height="30" as="geometry" />
        </mxCell>
        <mxCell id="qNzG1IiznAIY8dUd2jGB-80" value="PK" style="shape=partialRectangle;connectable=0;fillColor=none;top=0;left=0;bottom=0;right=0;fontStyle=1;overflow=hidden;whiteSpace=wrap;html=1;" parent="qNzG1IiznAIY8dUd2jGB-79" vertex="1">
          <mxGeometry width="30" height="30" as="geometry">
            <mxRectangle width="30" height="30" as="alternateBounds" />
          </mxGeometry>
        </mxCell>
        <mxCell id="qNzG1IiznAIY8dUd2jGB-81" value="UniqueID" style="shape=partialRectangle;connectable=0;fillColor=none;top=0;left=0;bottom=0;right=0;align=left;spacingLeft=6;fontStyle=5;overflow=hidden;whiteSpace=wrap;html=1;" parent="qNzG1IiznAIY8dUd2jGB-79" vertex="1">
          <mxGeometry x="30" width="150" height="30" as="geometry">
            <mxRectangle width="150" height="30" as="alternateBounds" />
          </mxGeometry>
        </mxCell>
        <mxCell id="qNzG1IiznAIY8dUd2jGB-85" value="" style="shape=tableRow;horizontal=0;startSize=0;swimlaneHead=0;swimlaneBody=0;fillColor=none;collapsible=0;dropTarget=0;points=[[0,0.5],[1,0.5]];portConstraint=eastwest;top=0;left=0;right=0;bottom=0;" parent="qNzG1IiznAIY8dUd2jGB-78" vertex="1">
          <mxGeometry y="60" width="180" height="30" as="geometry" />
        </mxCell>
        <mxCell id="qNzG1IiznAIY8dUd2jGB-86" value="" style="shape=partialRectangle;connectable=0;fillColor=none;top=0;left=0;bottom=0;right=0;editable=1;overflow=hidden;whiteSpace=wrap;html=1;" parent="qNzG1IiznAIY8dUd2jGB-85" vertex="1">
          <mxGeometry width="30" height="30" as="geometry">
            <mxRectangle width="30" height="30" as="alternateBounds" />
          </mxGeometry>
        </mxCell>
        <mxCell id="qNzG1IiznAIY8dUd2jGB-87" value="symbol" style="shape=partialRectangle;connectable=0;fillColor=none;top=0;left=0;bottom=0;right=0;align=left;spacingLeft=6;overflow=hidden;whiteSpace=wrap;html=1;" parent="qNzG1IiznAIY8dUd2jGB-85" vertex="1">
          <mxGeometry x="30" width="150" height="30" as="geometry">
            <mxRectangle width="150" height="30" as="alternateBounds" />
          </mxGeometry>
        </mxCell>
        <mxCell id="qNzG1IiznAIY8dUd2jGB-88" value="" style="shape=tableRow;horizontal=0;startSize=0;swimlaneHead=0;swimlaneBody=0;fillColor=none;collapsible=0;dropTarget=0;points=[[0,0.5],[1,0.5]];portConstraint=eastwest;top=0;left=0;right=0;bottom=0;" parent="qNzG1IiznAIY8dUd2jGB-78" vertex="1">
          <mxGeometry y="90" width="180" height="30" as="geometry" />
        </mxCell>
        <mxCell id="qNzG1IiznAIY8dUd2jGB-89" value="" style="shape=partialRectangle;connectable=0;fillColor=none;top=0;left=0;bottom=0;right=0;editable=1;overflow=hidden;whiteSpace=wrap;html=1;" parent="qNzG1IiznAIY8dUd2jGB-88" vertex="1">
          <mxGeometry width="30" height="30" as="geometry">
            <mxRectangle width="30" height="30" as="alternateBounds" />
          </mxGeometry>
        </mxCell>
        <mxCell id="qNzG1IiznAIY8dUd2jGB-90" value="name" style="shape=partialRectangle;connectable=0;fillColor=none;top=0;left=0;bottom=0;right=0;align=left;spacingLeft=6;overflow=hidden;whiteSpace=wrap;html=1;" parent="qNzG1IiznAIY8dUd2jGB-88" vertex="1">
          <mxGeometry x="30" width="150" height="30" as="geometry">
            <mxRectangle width="150" height="30" as="alternateBounds" />
          </mxGeometry>
        </mxCell>
        <mxCell id="qNzG1IiznAIY8dUd2jGB-91" value="" style="shape=tableRow;horizontal=0;startSize=0;swimlaneHead=0;swimlaneBody=0;fillColor=none;collapsible=0;dropTarget=0;points=[[0,0.5],[1,0.5]];portConstraint=eastwest;top=0;left=0;right=0;bottom=0;" parent="qNzG1IiznAIY8dUd2jGB-78" vertex="1">
          <mxGeometry y="120" width="180" height="30" as="geometry" />
        </mxCell>
        <mxCell id="qNzG1IiznAIY8dUd2jGB-92" value="" style="shape=partialRectangle;connectable=0;fillColor=none;top=0;left=0;bottom=0;right=0;editable=1;overflow=hidden;whiteSpace=wrap;html=1;" parent="qNzG1IiznAIY8dUd2jGB-91" vertex="1">
          <mxGeometry width="30" height="30" as="geometry">
            <mxRectangle width="30" height="30" as="alternateBounds" />
          </mxGeometry>
        </mxCell>
        <mxCell id="qNzG1IiznAIY8dUd2jGB-93" value="stocks" style="shape=partialRectangle;connectable=0;fillColor=none;top=0;left=0;bottom=0;right=0;align=left;spacingLeft=6;overflow=hidden;whiteSpace=wrap;html=1;" parent="qNzG1IiznAIY8dUd2jGB-91" vertex="1">
          <mxGeometry x="30" width="150" height="30" as="geometry">
            <mxRectangle width="150" height="30" as="alternateBounds" />
          </mxGeometry>
        </mxCell>
        <mxCell id="qNzG1IiznAIY8dUd2jGB-94" value="" style="shape=tableRow;horizontal=0;startSize=0;swimlaneHead=0;swimlaneBody=0;fillColor=none;collapsible=0;dropTarget=0;points=[[0,0.5],[1,0.5]];portConstraint=eastwest;top=0;left=0;right=0;bottom=0;" parent="qNzG1IiznAIY8dUd2jGB-78" vertex="1">
          <mxGeometry y="150" width="180" height="30" as="geometry" />
        </mxCell>
        <mxCell id="qNzG1IiznAIY8dUd2jGB-95" value="" style="shape=partialRectangle;connectable=0;fillColor=none;top=0;left=0;bottom=0;right=0;editable=1;overflow=hidden;whiteSpace=wrap;html=1;" parent="qNzG1IiznAIY8dUd2jGB-94" vertex="1">
          <mxGeometry width="30" height="30" as="geometry">
            <mxRectangle width="30" height="30" as="alternateBounds" />
          </mxGeometry>
        </mxCell>
        <mxCell id="qNzG1IiznAIY8dUd2jGB-96" value="price" style="shape=partialRectangle;connectable=0;fillColor=none;top=0;left=0;bottom=0;right=0;align=left;spacingLeft=6;overflow=hidden;whiteSpace=wrap;html=1;" parent="qNzG1IiznAIY8dUd2jGB-94" vertex="1">
          <mxGeometry x="30" width="150" height="30" as="geometry">
            <mxRectangle width="150" height="30" as="alternateBounds" />
          </mxGeometry>
        </mxCell>
        <mxCell id="qNzG1IiznAIY8dUd2jGB-99" value="" style="ellipse;shape=cloud;whiteSpace=wrap;html=1;strokeColor=#4C0099;strokeWidth=2;" parent="1" vertex="1">
          <mxGeometry x="525" y="160" width="280" height="170" as="geometry" />
        </mxCell>
        <mxCell id="qNzG1IiznAIY8dUd2jGB-100" value="" style="rounded=1;whiteSpace=wrap;html=1;strokeColor=#FFD966;strokeWidth=5;" parent="1" vertex="1">
          <mxGeometry x="500" y="400" width="330" height="210" as="geometry" />
        </mxCell>
        <mxCell id="qNzG1IiznAIY8dUd2jGB-106" value="" style="shape=image;html=1;verticalLabelPosition=bottom;verticalAlign=top;imageAspect=0;image=img/clipart/Gear_128x128.png;shadow=1;textShadow=1;" parent="1" vertex="1">
          <mxGeometry x="757.06" y="550" width="90" height="110" as="geometry" />
        </mxCell>
        <mxCell id="qNzG1IiznAIY8dUd2jGB-107" value="" style="image;aspect=fixed;perimeter=ellipsePerimeter;html=1;align=center;shadow=0;dashed=0;spacingTop=3;image=img/lib/active_directory/laptop_client.svg;" parent="1" vertex="1">
          <mxGeometry x="290" y="460" width="90" height="100" as="geometry" />
        </mxCell>
        <mxCell id="qNzG1IiznAIY8dUd2jGB-108" value="&lt;b&gt;&lt;font style=&quot;font-size: 17px;&quot;&gt;Web Client&lt;/font&gt;&lt;/b&gt;" style="text;html=1;align=center;verticalAlign=middle;whiteSpace=wrap;rounded=0;" parent="1" vertex="1">
          <mxGeometry x="305" y="580" width="60" height="30" as="geometry" />
        </mxCell>
        <mxCell id="qNzG1IiznAIY8dUd2jGB-110" value="" style="endArrow=none;dashed=1;html=1;rounded=0;exitX=1.011;exitY=0.58;exitDx=0;exitDy=0;exitPerimeter=0;orthogonalLoop=0;flowAnimation=1;strokeWidth=2;" parent="1" source="qNzG1IiznAIY8dUd2jGB-107" edge="1">
          <mxGeometry width="50" height="50" relative="1" as="geometry">
            <mxPoint x="420" y="519" as="sourcePoint" />
            <mxPoint x="500" y="519" as="targetPoint" />
          </mxGeometry>
        </mxCell>
        <mxCell id="qNzG1IiznAIY8dUd2jGB-111" value="" style="endArrow=none;dashed=1;html=1;rounded=0;entryX=0.494;entryY=0.973;entryDx=0;entryDy=0;entryPerimeter=0;orthogonalLoop=0;flowAnimation=1;strokeWidth=2;" parent="1" source="qNzG1IiznAIY8dUd2jGB-100" target="qNzG1IiznAIY8dUd2jGB-99" edge="1">
          <mxGeometry width="50" height="50" relative="1" as="geometry">
            <mxPoint x="669.5" y="340" as="sourcePoint" />
            <mxPoint x="669.5" y="280" as="targetPoint" />
          </mxGeometry>
        </mxCell>
        <mxCell id="qNzG1IiznAIY8dUd2jGB-112" value="" style="endArrow=none;dashed=1;html=1;rounded=0;entryX=0;entryY=0.48;entryDx=0;entryDy=0;entryPerimeter=0;orthogonalLoop=0;flowAnimation=1;strokeWidth=2;" parent="1" target="qNzG1IiznAIY8dUd2jGB-97" edge="1">
          <mxGeometry width="50" height="50" relative="1" as="geometry">
            <mxPoint x="830" y="509.5" as="sourcePoint" />
            <mxPoint x="900" y="509.5" as="targetPoint" />
          </mxGeometry>
        </mxCell>
        <mxCell id="qNzG1IiznAIY8dUd2jGB-113" value="" style="verticalLabelPosition=bottom;html=1;verticalAlign=top;align=center;strokeColor=none;fillColor=#00BEF2;shape=mxgraph.azure.sql_database;" parent="1" vertex="1">
          <mxGeometry x="1405" y="720" width="70" height="90" as="geometry" />
        </mxCell>
        <mxCell id="qNzG1IiznAIY8dUd2jGB-114" value="" style="shape=image;verticalLabelPosition=bottom;labelBackgroundColor=default;verticalAlign=top;aspect=fixed;imageAspect=0;image=data:image/png,iVBORw0KGgoAAAANSUhEUgAAARwAAACxCAIAAACZY5UzAAAgAElEQVR42u1dC1hVVdpeiIAHFEFAFFCQ0jBSYwr/vOSEjWbppGk69ZRaajHOjIOmU4+aM85j6fNn3prfJrUf08bMLC89khpeGlPxT8qxUlE0xQuIEHL1cJX/5Xy52OxzP5wD5/K9D89hn33WXnvtvda7vsv61lpe9fX1gsFg2A9t+BUwGEwqBoNJxWAwqRgMBpOKwXAWtOVX4Ja4XqItLK7IL6rILSrPLbhZVuNdUFatShPWwbeDT11EWHBooKZb58DQoIAuHTX86poPL3apuxP2n8g5+GPuNzk3S8u1+FpY0fAZGqBHldt18rBQ+wvZQjW+gYHt+0cHJ90XMTCus0bDBGNSebZc2rD72+3/yQeLDFDIGBTUUp4prGr4fKb/XdOG3xsT3pFfL5PK4/Dh/lOr07OsvswIoxolmI5aLw2K+eOo+9u3b8/vmUnlKXj9w4yPv7lghXQyz6j6ptS63StQvPvn37LIYlJ5KKPIiDJsR1kqo/TbgxdO7ljwFLsxmFRujh9zCse8vUdJnsD2mlmPxXXrHHjlRumKvVnkq2g2o4Soqyms9R4cE/TB7FH82plUbi6m9p3KVTJq44wkpTBJfvffJy8XWsaoehJHBhlF/wu0NWuThz2aEM1v3ix48NdVoRx3gtb32sh4lXo2d9z9Uhs0xyhhmlFAmMbn4I+5/NqZVJ4CKIHxsZ1VJ2PCO8aGd/qFOWZklDDNKMJ3WRf4VTOpPAiVleqACa1WW1Nd00ytj8Gk8lBAzfv6x6uqk0ezbly5WWbcV8GMYlIxTKp/q9Oz9nx7SZ75Madw/pbMUI0vM6rlwQG17oM/fXA4dvfpHp0CLhZV/JRfxIxiUjHsIK9Ky7UnS8uFLjqWGcXqH8NeVertCDuqvraKXy1LKo+EvqOvyUlLvef68Grrx2+XJRXDsMhhrY8lFcMw/v5cf9suPHEub8bGo6F+baxilE798+fXzqRyZ9gcM96tc2B9TaXw87eSUQwmleujHKjztnu2VwvLrZdRTVHytSj7t4Gk3iHC/z7R8WEmFcO5cCm/ZMvBH/afL/0pv8hBtwjT+DRLQFVfFuWHG7/evt14/PNn4lobETZZhD3HpGK0PrRa7Ts7v1135BLNkrJoPq/D4vrMq3zku8ft2ijcXTgGx66nisJ94u5lwqeTB9Yje/+cSECNXnZw+3/ym79yS8uN8KoKADqR1PL2FnVXxIU/iJoiJhWjdXC9RPvi6q8Mz9VtDUZZ5JkwOCamFFk1BeLC35hUjNbBpH8c1FbXOgOjQCfLGHXbzBl89fISld+LG9uYVIyWxof7T1nnk2hFO8pCjsmv3m3FjXc9TQlkUrW+4rc6PcsZ7Ci7MaoxR11hamtE8W4mFaPlsGH3t+4mo+iMXFAIwip/PZOK0ULQarX7z5e6odanWqLrVq7QZjOpGC2BCzcqLLWmnIBRvSOCbWEU4BMqivcxqRgtgbSMLGcf4ZW2X5n2/riYX77Ulpqxo5qUpLbBDVhymknFaAn8VFTnQlpfwt3hvxzpM0RlRykZRahhUjFaxKBSryDrrIyCmErqc9d90aE6ekBfzW4SmmSMUUrU1ojqPCYVw7EoqRZNVpB1bs/EwufvxJ7fOiVqay1iVJ0iWU2h0F73kJrlgNpWQ2FxhUswCmIqNWVM41Y6pbus0Po8EkyqVkN+UYXza31dOmjS/v7cL4pfg3g9IYozG+JlhfExX31GedgmGEyqVkN1bZ2jGVWgrZFTp3Ac6nPbEiLRQXxkyJ/GDHp6YGzj5r+wpq691uDKE8Yd6B7PKCZVq6p/pVr7MEp4gTD4d09Iu86dgkLaeTWnVJ1DOkaEBSfcHX5X54Ame2mDURf+0MAlmjHFjGJSuQBMrS5mhFF1NaDTwz27/G3IfyX06urAnQ5LvhZ5q0VtoSlGGdA1PXTrMyaVyzIKJ7191iY/4sCN2KrzRHGGqPhSlJwRbX3MMEolpjx4M0EmlZPTzCijOvnVpb46Ti2dtNmi/BtRdVHUl4naEtvvXlUsbheJOl0ZYET5+pmyo5hRTConQWigxkY7qq4GMurdP/+2kVEweIp3i1v7GoaDDFO0qS0kDM2E14e3t4EENjDq9m0mFaMl4NvW2zbPBOyo/5n6cOPAEaTTjcVG6USgAAj6pCYul1yn2+lHSBhkBTOKSeXMCO8UYL3W1yCm7glp93hi7B0XwglR8FdrtMrbVidgRlkJDlNqPfUvKMAGRkFMPTs0odGR0ExGmVUCmVFMKhdCR9+mu0hZPMI77ME7YurG/7oMo7w7CU0XJhXDsdBoNIGB7ZvuHm+eUdD9fvFPQExV/p/dGGXiErvIKO8g4duVScVwOPpHB1vFKKGcflucYU9GWT6N1wZG1RWJDn1Y/WO0BAbFhRdWWcEoGFSdQ+44/erybbyrWUaZIIzZ8HNjWXVIZFIxWgIJvbreMausjz2vvWSLmLKEUZZP6FClMeGZCH6EScVoCcA66hcTfkdSWcMo2xS/VmEUdL/OL3jUTgVMqlbGhAExdzRAuzJKrr/X6jIKCH/Ko+qUSdXKeDQhenBMkHqL6+YzygY7yhGMIjGl6cmkYrQo5jz9UEF5hXsyyjdWRE7ztAplUrU+7osOfXZQfEH5LfvYUU7CKKEb8L1nhQfu+8akcgq8MXHAmD5df+FVs4SSc9hRkFHeQeLe9Z6m+DGpnAvL/jiyQV5pmyGprGWU/mYCFjJK3wuipBPZUfEbPZNRgqPUnU1eJd0XsezTr8/+XOlARuEADLFqPYmaQvMFgLIH6dR9uug41HMikphULoBHE6Lx92NO4Ynz+bkFN/UT9L0roglzlFOkLGFUXZ3oMkUEPW7nctdXCS8/z9w2m0nlMq6LxqX2bLCsTCSAgKrXcOtnUjGs8lWYnNDh3VZ4aW3fLcpTzSSr4FXv2Wt0uDCuvCYqTjbOireEUcKQr8+sT6KRkEHi/l384s2CvX/uJLVMMsqYy85bT1vxUoR3tOEWwuof08msocXLyjKpGHZglOULNdfVNZFRnrrOBKt/DDsxqrpABESJ8BHCv2fD2BQziiUVi6lmMQq4Z43oeGdzt5IT4uICUVfM75gllQcLpWbKqIiURkYBHRNEj9caYo4YTCommBlG6YMS6M94B8e8eZiYScUwyyiDyyGBPBxmwaTydLTr2yRGtjmMErro8pKv1YlhVrH654GOir1795aWlvr6+gYGBiYlJXlQ1bXvLwo22G1ZWUiqi/8t7r27McC8pkjkvtOo/oFdAQlMGEvg2mFK5eXlgwYNOnbsmEajSUxMPH78uGfV3qW3RNleGze8EYYmHbZpI6KShW93UVUgclNF9U9NSKX0DVqM3NzciIgIVv9cp7Nu375Lly733HNPSEhIfn6+u1bSxo0bvby81q5dq/4h5lXRtnvjcG0zGUWfF98UZ5PFpdcbnOlKRgU+agOj5s2bFxkZiU8mlSth1apV/v7+RUVF3bt3d7/qyczMjIuLmzx5MlHLQIre64XPvaK6yg6Mknog/TVermNU3D+sKvnOnTvRESxZsgTHaWlpbFO5EtDmduzY0bt37yNHjqAJwrKi8926dWuyubpjlE+Yc8HBwTbcSKvV1tXVVemAMkPkqnLev3//unXrlM0xKirKyCv4h7ixTRS+10At/ejY5mx407DURCfRY74Ie85yZW/r1q3o6S5evChPdujQgUnlYlizZg0+O3XqNGHChJSUlJkzZ+Lrhg0bJk2a5ND7jhs37ssvv4TyGRoaGhQUpNJLJT1UV9XU1FRUVIBLZWVlBQUFkLF9+/Y9efKkTIDmGBsbq3+7rl2Nz1HvPLZhlKl4d4Provyq8A3TyZy2NjKKPH6gU+cXRMREy+fGZ2VloXdjR4Vrkwr9/ZgxY9CycYzWic9ly5bRT+Hh4Y6++7Rp03Drszo0J5+hQ4dakiwsLMzUzz6dGuQJ/rTZonifKPm3qMxriJNQ6nXG+NNE9wsSIU+K4GENERVWAiV88cUX169frzofEBDApHIZwJpSfgWv5s+ff+DAAWhNI0aMePPNN+Pj4wcPHuzn56fSr+yC8ePH19fXz5o1a+XKlaqf0LYeeughpaZXWVkJuZSXl3f16tXLly9fuXKl0d0QE6O8tkePHsgWNgn6C1uapqZnw1/X6Q0+8dqfRfX1Bleel1bUloq6n0WVYtVO72Dh10G0DWyYYO8XJny7iLYhzRkCDgkJSU1NXbp0KYxAT7OjVBqBCwO0UT0OGIXzEB3QqVQqouOKQQqnihUmAMVPyUNoqgaT4VmU2RpL5pzAS5AlHz58eL0nwbW9fz17NiyZAKvmpZdeQjPdsWMH1D/Yyr169fr++++VKZOTkw8ePOigYkyfPl3VYZtOD7EpbT+gY8eOBpO59Fj2I4880qiZ+viwpHIZoAukp+jUqYnSMnfu3E8++eTWrVs//fST8ny3bt2OHz9u92JA8iBneZcHH3zQkqtQPKV0NSsDXUtSkfeIMHLkSJZUzg7InOXLl0MgkIsCiI2NRc1BWFEDTUhIgMGj0Wggr5R8gyWTmJg4ZcqUrKysn3/+2V7l8fb2Vll3Ftk+Gg2pryY8zmacE06M4OBg9v65DDIzM5XuMuh+Y8eOJWWP+nWw6/Tp0+RIgK0PUuEMOSqeeOIJiBQ04vLycthdp06dwrVxcXGt9Szz5s0bMGBAfHw8u6FZ/WtNwHAi/kDHM/FcsLKQ8tq1a4WFhbhqz549OIljqIUyK6mtmVDALFTkwG1r1T9rPTGupf7hPXus+ud6kqpdu3ZotfpebLKsJk2aNGLECByXlpZCEKGtkyAaNGgQOFZVVQXxRYll1A9E39NPP/3Xv/516tSpjvC82wuVlZUsA1j9sz9gDqnGFtELdu7c+fHHH+/Rowf4A1bAXvLz88NXrVYrA4hwfvTo0XQMawq9Ptro8ePHt23blp6eDl5VVFQsWLBgxYoV3CYYHkSqWbNmEaMgdoYMGfLxxx9fvHhx4cKFEFwkcMCQmzdvpqSkSE+AvDZXh0OHDm3evBkpIcHAPVLVFi9efO7cuU8//VQ1CMuwF2pqaphUzghQAipft27dvvzyy7y8vIceegiCCGc2bdoEYuAY7II4AtPIPXjlyhXIomPHjv3www9lZWVnz54dPnz4Aw888NZbb0VGRoJCysx79erVYtMTQOY5c+YsX74cN7XqQjwj85NJZU/QBMQTJ05QdF9SUhJUtYEDB0KRg5xBA921axfaKywlCDSKA1Sa+Krg2kuXLrXWg6CEaWlpEyZMsJZUDCaV/f0TQhessGTJkhdffJFOhoaGgle7d+/G+QMHDrzxxhsykILGhT/66KPS0lL9ISmcbK0H+fbbb/H58MNWT/irq6uzVrYfOXIE3dD169dv3brl7+/fpUsXdC6WDyFANkJh3rNnT3Z2Nl4szM6oqKjevXt37doVqvKTTz6pjEWyHOXl5ej+AgMDfXx8YP0aTKM/HcaV4CpuysLChs38KB585MiRMKsgu4g5qnAKAnnSDY70X7t2DZfYsWyWu9TpKUwUz4RLHSLawvKgf/nd735nrMaRp4WZmOUM3qQlLnVUlvIng55bFVBBJjJnl7p9AFk0d+7c8ePH43XDXkLHmZiYSD9JZW/mzJnoRyHTxo4da6yf+/zzz6Ojox1a1MzMzL1795I8vHnzJlRNyIobN24UFxefOXOG0hjroU3AEpc6JMC0adMgoOjrSy+9FB8f/8UXX8jQE2D+/PkDBgwwHViojJFHzzVu3Di8VRTgs88+U2Zl2/oTU6dOxWdGRsaWLVuMpQkLC5PzTVlSORCyRaqAjhBWE7rGHTt2mA3Sg0ihsDSIFwdJKkuAklgrqcxKGGW4nWgamK96dZBjZpUCgv4rRVZSgqGbs0FSGUxDXQDEo4UynGP/7AMYA6oJHagDqIKyY54xYwa5yNCD4gDdrcpjBvEFITZx4kRoIDKe1REYeQdoT6oyk27j7e1td/GYnJysVEFffvll5atDvyO/Xr161URWEEfyWA7uKbM6deoUBRAr6WctYOiuWrVKqhhQ9tauXQv5aTbGnyWVQyZQSbGApoNOV9lqKQidCIM+VV+kyD4S5pmDJBXKo/oVjQ+NRkoSJLZQTiollQmxIOOwJPSfThmwb7oAkBhmm4cUfcZErmlJheJJcdfMGDGWVM0FjAHprqDuOT09nTx+ED6oSBoIRleKqsrJyTHhQEMrd1AhfX19lV81Gg16X9geEB3UXqurq+1+UzRcctvgEy3etL/etEUHOS+PpTDRl1e4C4hqiY+uqqpKJVTBaloZBrXgfkuguhipVBWwbNmyYcOGkeqfkpIyfvx46HuzZs06dOgQLVururygoEAqhK3iVacg4JKSErvnjMa9d+9edJP4NOs0138zSignAUAxmzJlipJmSl7Z4FLfunUreZjQC0DKueU6m643nwqyCLYKDVVBs9+yZQt0JKn6o85wEi0sLS1N33mARkCxS9nZ2Y4QF2ZBrbCoqMjaQaeWxJAhQ5Rf169fHxkZCTGrXHXMNsybN2/ChAl0nJqa6sIjUW5GqmeffTYjI4OUtxMnTsDof++99zJ12Llz51dffQUDBuILVq8JnywyAa9apfwwfjZs2GBDe2pmmBL0ZAvVP7JUVSfXrVsXGxv7zDPP2LAqASQSZN2oUaNobU3CP//5T+GucDkrULlgeicdpAcZFgsaBA5gdKm8FDSSCBuAXMY4gKxr+cHf5syngiZm7eV4TNiZuFA1Pm7JSixKd4UKuNysm0flLjcIRyxt4AxwPVKhBaOJwJpS9qZUx6CTkkuQCfIr+d/IgQYD7MCBA8YGT9yAVGisqnWmUDwbljdCPvrjAUqD1lpS6ROV16hwCsAoGjBgAAwnGQGIY1L3k5OT8/LyoJ/Q16ysrLfeeoumeISEhJSWlkL9wFc0KbkonwuhoqLCbBoowP369UtMTJw/f77QLT+IHgQ9C576iy++kMksXN4IvcPJkyeRAzog/V9nz55tYM8E48KNRqJo4raEcjCNbarWxMCBA2FNoaap971y5Qq6QHAJNQfmwFjC+b1798bExKAikYwCasknlpOTA1qmpKT06tWr+Za38wAWFwyeMWPG0AADxDiePTU1dfTo0fTgSjvKKosOORw+fBiyXa5dJYFezEJLD9VBjj7kpqQoTDV0BEwqp/BVQOZcvXq1f//+dAa8Ap3QC5aUlAQHB2/cuHHEiBGRkZHXr18vKiqSoesrV64kT/rChQshrOy4oJIzuOxkKB203I8//ti+3uqkpCQQQ7W+J3Ds2DGz16p0SJVmiI6AtAkmVWsCggiaCepYkmrkyJFTpkzZunUrJNj7778/efJk2F3QgnAGHbYMvaWxLBygwaEVbtu2zYWeura21thP6EQyMzOVipl+Ggun30J6UzSwMWrBOlW6PfDCzeapGvzFy1fxCrLLnaZguuoKtdD3YLhD4aGvaWlpkEhQ2VesWPHYY4/hDA5Qc9DxUIUGtR2oQ6qlNm1GXV2dQyMJzQLqmb2y2rx5M4S8kqIq0JQ2+dWSIEb9l4OuTZrEQjdwl5CQwKRqZYwaNQqfu3btgoySJ48cOQJFopsO6EH79OljWtwJXVhn8wtTUFCg3HDAQcPK586da87lSufE0aNHjUkG2vtn7NixJt6Mcu4MdWH6UA4DKl+OxDvvvKP8evbs2X79+rmHvHJVUkH+wBZHC6AwJYlDhw6BTqhFjUYDZd10JT3xxBMmumTLocpEtYx7c7B9+3Zll2GsoauWrKGdF1UlnDhxorKVx8fHz5s3LzY21svLSz8KCQkg5I29nEWLFtGBXAFOH0pnozA0cg31QaUp4L2hVO5gX7nuaMCZM2egASq1CHJFyMBwCDF8lpWVUUS2fjy1XYaAUQz9qccwzTds2ID8UQCbJ26pAs9JuuKkfp4GN8jCy1m2bJmJMVwJ5RQm1QAXei48yPHjx2Ga4i7QqJW+O4Ojt3jPqpldZPTSXClVLeg/o7izECrdlAd/WxpUVcr6GD58OFoStRIaA0Utom5Qeaoawnk0F7R+C+cL6gOXK5VPE74v/UkozRl1JRGhatD67VgCnMevtDqvPvFUkwJV40gmYJBRBkmiAtJYPruep9O3NGbPnp2eno6+U85TzMnJma0D6DRr1iyhW/4fPd+6devAAagWixcvluoHTC+k/Oijj2wbgjx8+DCF7Q4ZMkSlgF26dOn06dNUKmg11k6e37Rpk9QhUcju3btHRUX5+/tDQEHjzcjIgNBAX6C8BI/wq1/9avr06UqdDXIYogbFozDi8ePH4yWQcjh37twXXnhBf4bI6NGjQbN//etf+fn5SoeEUuZMmDCB9n/Q/5WWtZFkHjBgQM+ePZXbLJw/f151SUpKSkVFBY1WK2UyNHxHbzDrIHjV6+8D61J45plnhg4dKie9ookrdSE0HWoZqODevXujktAoX3nlFWn6U3iRq78ElfUC7tlx80i55zdY7bi9ycnocvTe5+yosAhz5sxB3yy3+r3//vulhQNVcNiwYRQliJ4evTK4B9EkN7fGGVJXpPhyA9CcSDvOqkCGyA15OrTFa3Rwkzpwg/hFsqyU5g30PeiE0pqXxjpMCNVKJjAMYGmAde4aMc1gR4UtIM8szbBShq4Tf/CrdFgZXEXolg4gHrcGBpOqEeQ7VnmuHnzwQXK7Kc9DOYRoUnkCYYbBOncnXpkVvLZJZnKQMG08glTkaYASqFyIC6SSa+WphrNE07WWIM0grHCtQzexb0lGmVbsaRzChhE5XEUTPRkeQSpZ5co9rckfiDZEyuHcuXNpbEroLSRGwEnVKIrrdjGmE9g2RxPCnEnl5uNUSsTFxUEJ3Lx58+9//3vVoMerr74aHh4OYbVkyZLhw4fPnj27srJSf73bjRs3gn6hoaFoN7Ytve+6XngLPW8BAQEtUJ4pU6akpqayS90p8Morr2zfvv2BBx5QniwoKMBncXHxzp070dHi18mTJycnJyckJEjfuhxmBalgNsTGxjrnVKuLFy96eXnhQTIzMylmDx0BxRbj5Nq1a+XCLDAd582b169fPxoBl9i6devy5ctffvllGpjGG0CCDz/8kDLB5RQgi0zoDNIjW5ykMWU5+xj3Xbx4MdLQ5N/ExETkiTuiVCgk3h4OkGDw4MHdu3fHeRzgDL1VFACX4wzKn5WVhQQoA01YpluvX78elxhcF41d6q2AwsJCKDb4lDFsaF6wrXEGlgYtZ4ufRo4cCT0Q2uDKlSuVcTqk+5HJ4ZwWOYpN8Y3k8MRXfNIiGZC9eDRaOkLWLM5LhQ0p5eoUpP4h8SeffEIDEoU60AIbOElXkUZNarNU/3AjGTMpdDM7duzYQaWiCcKUPy0cgndOWSETCuejAXpkRW+bFgCklORAsnAJDaeFW0kqoZvts2jRIrQVdHVkOxUVFSUlJaWlpeGn1atXQ/d7//335TS+9PT0Xr16yXVYqZ+mMAvIPSeUV5MmTUJp0dOj3S9duhQ9fUREBJo1xZHgqWW8CCE6Olou1Ya+XxV4DhZlZ2dDROzatStEh6eeegqZ05IEJMn9/PwgcyhiCOofvuov/SvuRMpHRkbSxBCkNLgSRmlpKYqKG5EAxJmoqCiaxSjDHS1ZjYMlVUsDHTZ6VgpUl08q64w4A+Ipg1ZxrBRZ0ovohIPC6OBpWSilFMIjz5w5UynH8IBr1qwB91T+CYgIir6lIGNIchLaMiuhiFuHRCIxRZKKou/p1mvugAYt8KqRIW01QAno1rgjDRhCEFHZcIbKRpIKBaDl1HGeztAYI60+b3qDEvb+tShQGVTfJjoUGWkBfQPNBbWr5BXqlVZmt3CXtJaEwcksNNNE6Q41uC0NtWDliIIqiN5Ytvg8o4N+/nhXNENEKuG00jrKeVwHyofO0LV0QMok+IObysxxLDeacMXBQ7clFRkAoBZZWUougTzoR9Frog+mFYJQeWRHkQEmc0Blo+uVfnl2FhvDDh3sni3euSt68IV7Vzb5JOqbrmsrNUAZ0ySVGaTX1/dQrxSwK21uywdhnU17RPcBrcza+V2WvGcoinbP1o4b8zGp7GyBQFJd04EohBZAkezQ7kgQKYWYMLSxlSSJuLNDmSVOSGF8E8FWBG2X3IoFoMmjbtzk3J9U9Ub2NZWBFyCJFFm0SJMJZ7qUeBCA6PINpiTPtTKo16kAqWtHUlkuTGRKmpnvxu3Ne+HChW4fMRAaGvraa6+dP3/+1KlTJKAiIiLkAiPHjh2j8xBTAQEBmzZtun79+oULF0pLS++++26hW3HJ398/Nze3uroaZ+bMmdO+ffsffvhh3759YODly5cvXboUFBTk5eWFZEj861//+ptvviGRaMkSEdaivLz8+++/r6qqCg4OJkc5bg29tKioiPb21Gq1tGgZJVCOHefn58NQ6du3L96AvBDvR+hWycaD4BIfH5/MzEzkj8QQufSrBB7w9OnTfn5+eNiDBw8uXbq0Z8+eyjS4+8mTJ2Xx5GDxtm3b0JGhhG3btsUL9PX1RVZIfPXqVRSMagQFkGuAogy2bdTNLvWWtqdJHG3YsAEdNuSJ6Q2w0aeiU6eUxDrINKWTmjZxk6ojxJcy8hB3QQvGTZUrZNCG3zTfhEalrXoEWqwGPT3uRfngEcjrjQKQBKCVJ1BmpXMFicmaAqPwULg1ioqU5F5DDigk0lBI5MqVK3FAI7nKIGPKljKhZ9GfikZ7gqiaFvKX9ioSkADHrWkUHpngoXCATxq8pleHT/b+uQDQClHBVIVoRqrFg0yAhoZoSAdNARdKHYaWGaJkaI7UOsnLrL/RE7npxZ11diV7LSw/MiSTj5aJV6pzKANtdEJMoOWc5IUUM0FOBUqPA2IdRSHL/JEJRVHQGfmT0imHwpuwjvTD5Ikk8phIhRtRD4X0NISF+9LmJkK3NxK9TJdrY22Fh0Gj0SxevN0bQCUAAAMjSURBVBh6Bem9aNaoSGgdn3/+OXXPylX7lEvKQCdctWpVRkYGCHno0KGCggKScmgEvXv3Rg6U7KQO0HDi4+PFna0+t2zZgqZJa0pSTAM6YKhMyIeuAi0t1HO6du2Kq+Li4qCdyuWslYBiVlFRQUvZqCJCoGVB+1JFPNIlcr1L/Ip3Ii+Eevab3/xGpoS+Bw7v2rXL2BrUuHDEiBEgiWqugKoKLHnSIUOG4DH1S+v88DhSEdCC165de+7cuQ8++GDRokXonvE5ffp02FeVlZUUUgAbbP369fISeQxbAkyDEQWBAPPp6NGjykW2lJcooVqldd26ddLhMWzYMMs3k3799df/8pe/oHh0jE/YbygzmHDixAlwAG1x/PjxIBVYjU6BrCzg7bffRoFJM4R5g/aKB0TXQPYVpAcuiYmJAdtxCbghF5pfvXq1vHuHDh1qamq2bt2KfgS9A+QVHh99zdSpU5WrYsCCGjhwID7lckgPP/zwjBkzsrOzcRdcUlJS8uijj8KUhR2Ffue7775Db/X888+jR0MakB/yFr1e//790fW43JpKLr+akl3sfvSsqFRIm3HjxkVHR+fk5MBGR32np6fbZQlblehDO549e/bYsWOFlbvaKMssL8Sxt7c3un9a9ojOG5zNoTqpWsBI+ZW6mwULFlibiYmJJPK8LLD+gVzIllJaPieFSeW8AJHQ8aPLhwEwefJkdJPo11Hf5MhCBffp0weq2oULF3Ae/Xq7du2EboljKHiq1dGUREpJSRk1apQLtQ+8B5g0K1as4CbBpLIn0E1CZOXl5cF6gRCD7MIZ2v0AB9C4qFvFT2SXR0VF4TM2NhaaFdLA+IGt0qVLF1fsa3fu3InnQncgXSkMJpXD+Xbr1i2asEAjNu6zZh2DScVgOBva8CtgMJhUDAaTisFgUjEYDCYVg8GkYjCYVAwGg0nFYDCpGAwmFYPBYFIxGEwqBoNJxWAwqRgMBpOKwWBSMRhMKgaDwaRiMJhUDAaTisFgMKkYDCYVg8GkYjAYTCoGg0nFYDCpGAwmFYPBYFIxGEwqBoNJxWAwmFQMRuvi/wFXIS9l2RugugAAAABJRU5ErkJggg==;" parent="1" vertex="1">
          <mxGeometry x="549.6700000000001" y="455" width="207.39" height="129.25" as="geometry" />
        </mxCell>
        <mxCell id="qNzG1IiznAIY8dUd2jGB-115" value="" style="shape=image;verticalLabelPosition=bottom;labelBackgroundColor=default;verticalAlign=top;aspect=fixed;imageAspect=0;image=data:image/jpeg,/9j/4AAQSkZJRgABAQAAAQABAAD/2wCEAAkGBwgHBgkIBwgKCgkLDRYPDQwMDRsUFRAWIB0iIiAdHx8kKDQsJCYxJx8fLT0tMTU3Ojo6Iys/RD84QzQ5OjcBCgoKDQwNGg8PGjclHyU3Nzc3Nzc3Nzc3Nzc3Nzc3Nzc3Nzc3Nzc3Nzc3Nzc3Nzc3Nzc3Nzc3Nzc3Nzc3Nzc3N//AABEIASEB/gMBEQACEQEDEQH/xAAcAAEAAgMBAQEAAAAAAAAAAAAAAQcFBggCBAP/xABMEAABAwMCAwQECQcJBwUAAAAAAQIDBAURBgcSITETQVFxIjJhgRQVI0JScpGhsVNidJKywdEIJDM1NjdUg6IWQ1Vkc5PhFyU0Y4T/xAAbAQEAAgMBAQAAAAAAAAAAAAAAAwQBAgYFB//EADQRAQACAgEDAwMDAgUEAwEAAAABAgMRBAUSMRMhQTJRcSIzYRQjFUJSgZEkNKHwQ7HBBv/aAAwDAQACEQMRAD8AvEAAAAAAAAAAAAAAAAAAAAAAAAAAAAAAAAAAAAAAAAAAAAAAAAAAAAAAAAAAAAAAAAAAAAAAAAAAAAAAAAAAAAAAAAAAAAAAAAAAAAAAAAAAAAAAAAAAAAAAAAAAAAAAAAAAAAAAAAAAAAAAAAAAAAAAAAAAAAAAAAAAAAAAAAAAAAAAAAAAAAAAAAAAAAAAAAAAAAAAAAAAAAAAAAAAAAAAAAAAAAAAAAAAAAAAAAAAAAAAAAAAAAAAAAAAAAAAAAAAAAAAAAAAAAAAAAAAAAAAAAAAAAAAAAAAAAAAAAAAAAAAAAAAAAAAAAAAAAAAAAAAAAAAAAAAAAAAAAAAAAAAAAAAAAAAAAAAAAAAAAAAAAAAAAAAAAAAAAAAAAAAAAAAAAAAAAAAAAAAAAAAAAAAAAAAAAAAAAAAAAAAAAAAAAAAAAAAAAAAAAAAAAAAAAAAAAAAAAAAAAAAAAAAAAAAAAAAAAAAAAAAAAAAAAAAAAAAAAAAAAAAAAAAAAAAAAAAAAAAAAAAAAAAAAAAAAAAAAAAAAAAAAAAAAAAAAAAAAAAAAAAAAAAAAAAAAAAAAAAAAAAAAAAAAAAAAAAAAAAAAAAAAAAAAAAAAAAAAAAAAAAAAAAAAAAAAAAAAAAAAAAAAAAAAAAAAAAAAAAAAAAAAAAAAAAAAAAAAAAAAAAAAAAAAAAAAAAAAAAAAAAAAAAAAAAAAAAAAAAAAAAAAAAAAAAAAAAAAAAAAAAAAAAAAAAAAAAAAAAAAAAAAAAAAAAAAAAAAAAAAAAAAAAAAAAAAAAAAAAAAAAAAAAAAAAAAAAAAAAAAAAAAAACAAACQAAABAACQIAkAAAAAAAAAAAAAAAAAAAAAAAAAAAAAAAAAAAAAAAAAAAAAAAAAAAAAAAAAAAAAPguV2obWkbrhVRU7ZF4WOkXCKvgb0x3yTqsbZiNvnm1JZqeLtJrnStZ1ysiEscTPPiks9lvsyFJVQVlPHUUsrZYZG8THtXKKhBas1ntny11p+6GAAAAIVcAYl+o7PHVy0klypm1ETuF8bn4VFJ68XNaO6Kzpt2Weo9QWmWsjo47hTvqZfUia/LlMXwZaRu1WJrMMoQsAEgQBIAABAEgQBIAAAAAAAACAAAAAAkAAAAAIAAMgMoAynigDIEgAAAABCrhOYHzxVtNLIscU8T3p1a16KpvNLR7zDOpfQimjCQAAAAAAAAAAAAAYjU9jpdQ2aotta1Fjlb6Lsc2O7nJ5EmPJOO0WgctXOhqrFeZ7bXNVJIH8Ls9F8F8lQ6Ti8u0TEzPtKxS3ut7ZXVCcL9P1b+aZkpVVe7vb+8q9Y4mtZq/wC7GanzC3U6HgoEgAAGu631FFpuwzVzlRZscEDPpPXp9ha4fGnkZYp8fLale6XMF1rZZJHvkerp5XK97+/2nT8zP6FIx0nUrGS3bGoXdsno1bVa1vlwi/n1a3MSOTnFF3e9TmOVmte2plVWkhVEKuF6gRxJnCgegJAAQoEcSARxJnGeYHpAJAAAPKqidVAji5ASioqASAAjIH5TVMMDczSsYni5yIbRW0+INPlW92xFwtxpM/8AVQ39DLP+WWe2X7wV9JUf0NTDJ9R6Ka2x3r5g1L6OI0YTkCQAACAPLno3mqonmBql83D07Z3KyWuSomT/AHVN6aovt8C5h4GfL4jUN4pMtLuG9bGqraG1cs8nTS819yIX69JpHvku39OPmWOZuxqadVWmtLHN7uGBzjeeFwY82k7aQO3b1HTuzV2qNrfzoXNH9FwZ8Xk7aMpbd6oJFRtbbceLoZc49xrPSKW/byQenE+JbvY9d2C9OSOnrmxTLySKf0HL5eJRz9N5OD3tXcfeGk47Q2ZFRUymMFFokCQIAr/eW7VFu0y2GlldE+ql4HOauF4U5qiHqdKw1yZt2+EmOu5UXT1L6WVs9LI+KaNeNj2O5oqHW3jHanbMLUxGnT+lquev09bqur/p5adjn+1cHCcmtaZrVr42p28ssQtQAAAAAAAAAAAAIAqjfDSXw+3tv1FErqmkThqEanN8fj7i7xMup7LNqypyy3Ceiqoaqmerainej2Lnrj9x0mC0cjFOK6zWe6NOodKX2DUNkprhB1kbiRv0Hp1Q5bk4JwZZpKtaO2WZQrtRQPL3I1qquMImVyNbHO26Oqkvt8kSJ/8AMKNVjhROjnZ5uOs6fgrxMHfbzK1jjsruWK2v0u/Vup2uqW5oaVUlqFxyX6LfeeRyuRM7tPmVa07ncunY2NjYjWNRrWoiIidyJ3HlMPS8kAozdrVFUuqWU1tq5YWULMK6J6pl681ydH0vi1jF3XjysY6xphNHaxuFPqagra+vnmhV/ZTNkeqojV9nngt8jj4s/GnsrES2tWJr7OjWuRyZTmncciqvYADyoHNmtL/drTra7RUVwqYo+3ROBJFwmUTodFxJrFK91YlNSdM/tXcrhc9awrW1tROjIHu4XyKqfYT9Xx46cf8ATWIb5YiIXo3ocsrPQACF6AV5vbPUU2k2T0s0kMjKhvpxuVqpz9hf6fr1W1fKmY9V32ogkjkutXwplOUiodJxq4slZ3SNws01MOidBq9dIWt0rnOesCKrnLlV95y3N1Ge0R91a3lsCrgqtWq6x11adLs7Opes1WqZZTRL6S+fgWuPxMmfx4bVpNlQ3nc3Ut6qUp6B60rZF4WQ0jVV7vZnvPXpxOPgjdo2m7K1h9Nt251lfEbUXCp+Bsk55qZnOf8Aq9xpfqdMftSIazk14ZluytVw+nqFeL2Qrj8SCesZGvqS+Gv2l1PRN7S1XWGqVPmKro1+3JJXq9v80R/werLBR6u1fo6tbS3GSqhc1eUVTl8bkTwXvQsRl4XJ/cpqfvDaL0t5hZmkN0rfd1jprojaOpfhGyIvyT18+4q8rpF6V9TDPdVi2L5hYbXI5MovJTxkT0AAxWo79Qadtr665TJHE3k1PnPXwRO9STHjtkt21ZiNqD1huJd9RyPiildR2/PowRuVFcni5U6nvcbh48UbmNysUxxHlkdFbYV1+Yytuz30VC/m1qJ8rKn7k8yLldQin6a+WL5PiFuWTQ+nbKxqUdsgV6JhZZmo96+aqeRfkZMk+8oJmWfZTRMTDI42+TEQi3LCH0sL0w+KNye1iKNzA1u/bf6bvbXfCrZDHK5OU1O1GPT3oSVzXrO4kU7rfbu7aTRa+gldX2xq5V2PlIvPH4nrcXqmSs6n3j7S3rkmr9tD7l3C0qyGpe6soeSOikXL40/NUv5eFx+dTuxfpsm7a5I3C97NdqO80EdZb5klhenJU6ovgvgpzWbDfDfsvGpV5rNZ1L7yJgAqXfmT+aWmLPWSR33HvdDj9V5T4PKpbdTLWV9NSt6zSsj+1cHvZb9lZt9k9vDq2gp0paKCnb0ijaxPcmDhb27rTb7qU+X0GrAAAAAAAAAAAAAEAfnPFHPE+KViPjeitc1eiovcI9p3A5e3B03JpPU0sEaKtJJ8rTu7lYq9Pce5xOR4vHwlpZse0+qUsl5SkqJMUFcqI5VXkx/cv7i91LjRyMMZKeYSZK90bdAtXKHKqyVAr3dzVXxNZ1t1JJitrWq3l1ZH3qep0zi+rk77eIS46blz1UdpV1MdLTMdI9zka1jeaucvRD0udyO6eyPENs1t+zp7bvS8eldO09HyWpenaVL/AKT1/gc7lyd9toG0kYx1+uUVotFXXzORrII1dz8e77yTDjnJkikfLNY3LlitqJq+sknky6apl4l+s5eh2FtYsUVW5mK1fi6mqLdcKigq2LHOx3pNXuUg4GaJtNfiWuOffTpLbW9/HelaWR7szwJ2MueuW954HUcHo55j4lBkjVm2lFoAeVA5g3Tj7PX10av5Vi/a1D3+LO8dEtfLZtk2cWr3u7mUjl+9C31qf7EflJm8L5TocqrPQAABX+9reLQdSvhNGv8AqQu8H91tVz3R+rN5nTcH6bLOPxLqrRzUZpe1NROXwSP8DlOX+/f8q1vqa5ujrhNLW9KaiVrrnUoqRJ+Sb9NTbi4PVtufBWNqCa2sutemVkqaypk6quXPcp0URXFT39oWojtq6F2/0JR6Yo2TTMbNc5G/Kzqnq/mt8PM57k8q2W2o8K1rbbnwlRonAEYQDFaj0/btRW6ShulO2aJycl+cxfFF7jat5r4HM+rtO1ui77JQ1CrJTvy6GRU5SMz+Kd57fC5tsc7jx9m+O81lZO1OvHtlhst0mV9PJ6NLM9ebF+ivs8CfqnBplp/U4P8AdLkpEx3QuRFObV341tXDRUktTUvSOGJqve9e5E6iImZ1A5h1rqqq1he31D1c2kjXhpoe5jfHzU6Dg8fXtCbHDa9o9GR3msW63GJHUNM7Eca9JZP4IZ6jyfSj06+W+S+vaF8NajUwncc8rPQEoBAADxLG2RjmPajmuRUVHJlFT2gc4bs6NXSl5ZcLY1zbdWOVWoicon97fJeaoenxOTasxNfMM1maz7PW3OsJLBco5HOV1BUKjaiP6PT0k9qHv8vBTqHH76/VH/ulq0RkruHRkErJomSxuRzHojmuToqKcdMTWdSqzGn6L0MMKW33n4rpbIPoxOd9p0fRK6paVjC1faygS461oUc3LIMzO93QsdRzduG38t8s6h0i3mhyiokAAAAAAAAAAAAAACFA0zdHSqam05KkTU+G0uZadU71RFy33ljjZOy/8SzE6c3UznRyOgkyxyKvJeqKnVPM6bg5f/jt8rOOd+0ui9q9U/H1kSmqn5rqNEZJn5ze5x4fU+J6GXceJQ5K9sttulwp7Xb566rejIIWK97lPPx0m9orHy0iNuXNWagnvl1qbnVKqPlXEbM+o3uQ6iNcXDFarO+yrctitJ/GFxk1DWx8UFK5WU6OTk6Tvd7jw+Tk+PmVXe1+IhREqBVO+N77GipbLE5UdUL2s2PoJ0T7T2ej4O685J+E2Ku52rnbqz/H+sqOBzeKCF3by/Vb0+/Bd6hn7aTMNstmc32sy2/UlNeIGqkdazD8JyR7cJ96HmcHLNdfwirMxO31bLXz4Hfn26R+IK5mW5/KJ0+1D1Or4Yy4Yy1+E2WNxteqdDmFZ6A8r0UDmbd1MbhXL60f7KHu8P8Abolo2bY9M6nq/wBDX8ULfW/2a/lJnXohy6skAAA0beVnHoC45+a6Nf8AUhb4X70Mw50pPVl+sdTwvpt+VrH4l1RYpo6PSdBNM5GxxUTHOX2I05Lke+a35VrfU5m1BeptTaiq7nOqqkjvk0X5rE9VD3OBgifb7JMMblYmyFhZWXWou87OJtInBCjk5ca9V9xp1fN21ikfLbNb4XenJDn1dKASAAgDQN5dPNvOkZqiNiLVUHy8aonNW/OaT8e/bbQ55tk6sfwI5UX1muTuX2HUdNy+cdvErOKf8suntvb6t/0zTVUjszx/JTfWTvOe6hxvQzzWPCHJXUtN391A6jslNZoJOGSudxTY69m3C/epDxo/V3NFM22nfL2bI0+UlcjW+arhDq+NjjHh75W6e1duqNLWqOy2GioIm8PZRJx+1yplfvOS5GWcuW15VrTudsuQtUgAAEKAA1vcGxM1BpSvonNRZOz7SJceq9vPkSYrdt4HLdvkVsqxPTGeqeCnT9Ny9t5pPiVjDb306H2cvjrjp51DO9XTULkYme9i+qeZ1nj+ln748WaZq6ssBeh46JQ++EvFquGPPKOkb7sqp03R/wBPHmVnD4ZPYO3q6pudxc3KNa2Fir3L1UpdUyb1Vrln4XMnQ8ZAkAAAAAAAAAAAAAAAB5VAOd959KrZL6l0o4+Gjr1Vy4TlHL3p7+p6vFzTNf5hvWWD0bqGaw3imucCqrEXhnZn1mKvND3ctK83j/8AvlZmO+rct39ZRXVtPabXMj6TgSaZ6Lycq9G+48ng8Wccze8e6PHTXvKsbTbanUF7pbbRNVZJ3oxMfNTvcvuHJzd07+IR5Lbl1fp60U1js9LbaRuIqeNGIve5e9V8zxL27p2jZIwPEr0jY571RGNRVcq9yCI3OoHMGuL26+airq/i+Tc/giTPRicvv6nX8bHHH48Qt1jtqs3Yix/BrNU3iZidrWP4I+XNGJ/5PA6hl7r9v2V7S2PdWxfHujqyONvFPAiTw4TvTqn2ZKuC/beGsOdrHXS0dRDUwKrZqeRJGe5TqeJaMuGcUrNJ7q6dV2K4xXa0UlfAuWTxo/y8Tlc2OcWSaT8K1o1OmQImBQOZt4P7wrh7ey/ZQ9zh/t1SVbNsd/aas/RF/FC51z9qv5S5vC8sp4ocurJyAyAVeQGk7w89v7n/AJf7SFvhfvQzVzjSL6Mv1jqeF9NlrH4lfuv69bbtKrmKqPmpYYWqndnBysxvkW/Mqt/MqCtrcRq5PHkdP02v9qZWcMaq6N2fo0pdGU7sc6iR0qr45PA6rfu5M/whyz+pvB5qMAAAIUD566FtRSzQvTibJG5qp5oZidSOQJ4Vo7nJCvLspXM+xTouNbWSspqTqYlcmxdc5Km50Cu9FWNlantzhR12ntW8Ns8NL3ur3VuvJ4F9WlibE1PPn+88vj1/TCvHl+WgqJtZqy007kRWpO1+F/N5nTc2fS4lvwuX9qOm2nFKb0AAAAAADw9qOarXJlF5KByRqal+L9V3KnamEjrJETyVVwe9xbatSySnlYWytYsOqZabj9Cop3cvanQvdbp3YIt9pTZ/C9vmnJqrnTeCftNa1iZ5Rsaw6fgfp4m1rH9K0dmrf8C0TTSuTDqp7pl+3CfgeJzr92VBefdvhTaAAAAAAAAAAAAAAAACFAwmr7BBqSw1VtqET5RuY3fQenNFQkxZJx37oHLE1PPa7jPRVjOCWN6xyNXuch0fDzxjv/ErFLafjWScCK1vVxvzMnbM1jzLbLbUaXVsRpNaOhfqGtjxNUpwU6KnNsfevvOf5OTf6YVVvY5FUANK3Xv3xNpWZkTuGpq17CP39V+wv9Owernj7Qkx13LniClkuFwprfToqyTPbG3CeK9T3+Xl7a/hLln4dW2O3R2q1UtBCiIyniazl3qic1OTvfvtMyrPskaj2q1yZRUwqGo5X1tZ101rKtokbiFX9pF9R3Q97gZ9Wrb7psc6la2yF8SWjqrLM5OOB3aw5Xq1eqJ5GOtcfttGWPkzV99rVQ8JCL0A5m3g/vCuH+V+yh7nD/bqkq+XS+qavS9fLU0ESvlfHwOR0auTGfYepzZ42SsUz7T5Jr4ltbN47631qBjv8hyHm/0/TfvKL+0/VN5r1/wlv/acY/penf65Y/tp/wDWa9f8Kb/2nj+l6d/rk/tvDt5L4vS2sb/kvMxxum/6pP7bDal3Jut/s89urqdI6ebHErYXJ0XPVSXFi6dS+6zbbaPSaVS44ZeFVVMnpcTXbbSXHrU6XNu+qptbaUzyV0Gf1Tlo/wC4t+ZVL+VNUH/xkX2qdV0/9iFvF9Dp7bpqM0TZkamM0zVU5Xnz/wBTf8q1/qbKU2gAAAAPL+mAOSdUt4dT3NE/xb/xOg48e1ZTUhv2yLlTVsqJ0Wldn7ULPWZ3xon+Umbw03cxc7i3rP8Aik/ZQ8vie81Vq+Wx7UMR2uqDiTo16p54Pe6xGuLK3m+l0Q3ocYppAAAAAAB5d3eYHLG5DUTXF2x+XPb40fpqlqze1L3M1xb+FccSORfLB63VPfiWTZPpdF/NOOVHMe5EjqvWl2SNMufVdm1E+w6XFPZxKwseKOj7FRsoLRR0jEw2GFrfuOdvbutMoJ8sgaMAAAAAAAAAAAAAAAAABCplMAULv/aKekutDc4E4ZatqslROjlb0XzL/GyT29raJaJpqyx3u922kmkc1lTMjJFTw6nsZ+PvB62/fSW9N126vpKeKlgjgp2JHFG1GsYickRDmN790D9wPK+zqBz7u/fvjTU76eJ+aagb2aYXkr+9TqOl4fRwepb5WsVdRt42UtsFXqaS6Vj2MjomZjV6omXuyn4FHnWvaJ7Ymdob7mV/MqqdU9GeJfJ6HkTjv9mmpStVBjnNF+ug9O/2NKg37ttNV0VHeKWWF00D+xlRjkVVavRfcpd4tb19pif+GYiWgaIvi2S+UNx4+Fkb+CbHexeSnQXr/VcTt+Vmf1VdQwyNlja9i5a5Ecip4KchManSo/Rehgcz7wf3h3D/AC/2UPc4f7dPylq2PZFjJNSViPY1yfBF9ZM96Fzrn7UflJm8LvSlg/Ix/qIcxuVZPweH8kz9RBuQ+Dw/ko/1EGxC00H5GP8AUQbkaZu9BEzQNyVkTGqix80aifOQtcKf70NqudaT1JfrHU8L6bLOPxK791aV1RtNSSMTPwdkEi+xMIn7zl965FvzKrfzKkrdzpsd6Kp1fTY7sH4lbw+9HSu11Qk+ibaiLns2dmvuOX6nSa8q21bJ9TbMlBokAAAAfnK7ha5V7kX8DMeRyRe5kqr3Wzp0fUPcn2nS4a6iIWaQsjYqnc/UFdU90VOie9VQj6xkj04qZpabuzTrS7iXRVziWRsqZ8FRChxba7ZV6z7svttM2DWlsersNc9W/ah1PVsc34lpj7LuWN1dGtODUUgAAAAAA8u7vMDlPXUyVOsrtI3p8Kc1F8lwdBxq6pVPWG07PU6z61gfjKRQvevsLnVsmuNMfdvlnUOgXrhiqcnCq5qtMXx3ubBGqKrZbg6V3k1VPf5NuzBWP4T39oiHS7TwED0AAAAAAAAAAAAAAAAAAAFKfyiOlmT2vLnF8S2hpG3q41TZP0hv4KdJl/7Gfws2+h1AnecfCo9AYLWN6ZYNPVte5cOZGqRp4vXkhPxsM5ssVbVjcuW7hUPe58ki5lkcr3r4qq5U6rPaMWOKQs3ntjTfrVtRqWut1PVNr6SnSaNHpG5Fy1F6ZPKnrGWk9sSg9S33fYmz+p/+NUie5xr/AIzm+/8A4Z9W33P/AEf1P33uk/1D/Gc33/8ADHq2+7w/Z7UyIv8A7rRO5dMLzM/4zmn5PVv91b8EtJXz0lU3hlY9WPaiY5oehwc/deaz8pcdtzp0PtJffjbTLKeZ+amiXsn5Xmre5Txuqcf0s82jxKLLXtlvK9DzEbmbd9c7hXLzj/ZQ97ift0SVbNsd/aerT/lF/FC31z9mv5S5vC9Dl1ZIAABpG8X9gLl5x/toW+F+/DavlzlSerL9Y6ng/TZZx+JdNSWtl92/Zb380qbexqefCiocnmntz2n+Va3mXM1vZJS1U9HUMVkrHK1zXdzk6nT9GzR3Tjn5Tce3wvPZG5pJbKu2OVEdDJ2jEz1R3Uo//wBBx+3LXJHyZ66naz06HPK6QAACFAwOtrs2zaZuFa5yI5sKtjz3uXkiE3Hx+pkiG1Y3LllE9JFcp1EREStxGl+7KWZ1FpqSvmZwyV0nE3P0E6Hh9Szd+WKx8K+S25ad/KEtDorpb7uxvyc0awSL+cnNCDj39tImlWGu+DVVBWouFhmY9cexUydxjn+p4evvGl6J7qOpqKoZVUsVRGuWSsa9q58UyfPr0mlprPwpTGpfQasAAAAAgD4b1Wst1rq6yV6NZBE56qvlyN8de+0VhmPLkyaV9VWS1EnryvdI7zVcnUYqamFqkLi2JtS8Nwuz2Ya7EMTl7/pFDrGbfbjR5p+Fp3aoSltlXOq8ooXO+xFPGxx3XiEMeVF7KUrq3XVRWrzSmge73vVT0+oW9u1vkn3X+3oh5KN6AAAAAAAAAAAAAAAAAAACkf5RC/L2Zv5sil7hx7S2rDSNCLw6ks6+FQ06TL/2Ux/Czb6HUad5xqoKuAKU3uv/AMJuMFkgf6FMnaToi/OXoinQdH4+onJb5WMNfloGibM7UesKGhxmJH9pL4cLef3jn5/MtMtty6ojY1jGtY1EaiYRMdEOf2ie8AMAQ5OQHOu9tjW1arbcoGcMNe3tMp+UT1j0+JlmIifmG9J1LztbqBLLqanWR6pTVuIZPNV9FftPZ6jh/qeP3x58rGSO6u3RfzTklRzJuy9JNwbmqdEfGn+lD3+J+3RLXy2bZF6Jqydve6kd+KFzrcf2Y/KTN4XunQ5VWSAAAaHvS/h0DWInzpI0/wBSF3gR/ehtVzvSerL5nT8L6bLOPxLqvSS8emLUvjSx/gclyo/v2/Ktb6lPb16Plt1y/wBprZEq00zk+FNan9G/6XkveWOHyZx3id+8MVntnbW9F6ifZLtT3OHKxp6MzM9WL1Q6/NSnUeJqPP8A+rs6yUdJ26vp7jRxVdHIkkEreJjk7zhMuO2K80v5hSmNTp9RowlAIA8q7CAUVvHq2O7VrbRQycVJSO4pnovJ8icseSHQdO4k46epfzKxjpqNy1DQ+mqjVd9jpIkclMxUdUy9zGfxXobcnlRjrMl7un6OmipKaKnp2IyKJiNY1OiIhz1rTadyrsLrrTkeqNN1VsdhJXJxQP8AovTmhtjv222OYKZk1vrp7fXMWOaN6sexe5yHV9H5cRPpTPnwsce+p1K+doNSNrrWtnqX/wA6pE+SyvN8f/joef13hTiy+tWPaf8A7YzU1O4WOh4KBIAABCgQvQCpt7dTsjpW6fpX5llw+qwvqt6o1fap63TeNufUnwmxV37qgtdBUXS4wUVGxXzzvRjET8T1rZK46zaU8zEQ6j0vZobDZKW3QIipCzDnY9Z3epzGbLOXJN5U7TuXya/lfDo27uia50i0r2tRqZXKobcbXq12zX2loP8AJ+t74qO8V0jHNdJM2JEcmF9FP/JNzbxa/sWncrfKTVIAAAAAAAAAAAAAAAAAAhQKP/lCuzcLPH4RSL96HpcCu4mW9GjaRf2d8tbvCoadFkjfF/2WLfQ6oQ4tUfBfrpDZrTU3CoVEZBGruvVe5CTDjnLeKwzEblyveLhNX1dTW1LuKoqHq53vOutNMGHthamYrXS2dgLEsNurL5OxUfUv7GFVT5iY5/ac1zMm57VTe1voUhIACFA0bd+wfHejqh0TUWppPl41xzwnrJ70J+Pftv8AlmHOlBKqN4eLhVFy1TqOFliaTjtKzjn206a25v6X/TVNNI5FqYUSGdPzkTr70Od5/H9HNMfCC8alQm5TuLXV2Venbt/BD0uP7Y6Nqtn2Yciayb4OpnontLnWffj7S5feF+p0OUVXoABC9AK73xk4dFPZ9OdifeX+nxvK3ooGk6Sp35VcHScOY1aP5T45jUupNCyLJpG0uX/DNT7jlubGuReP5V7fUzFVTQ1VPJBURtkilarXscmUci9xV3r3hqozW21NwtFRLcdKtWpo1VXOo85fH9XxT7z1OF1C+C24bUvNJ3DCaP11X6WqnQK1zYlX5WiqEVvPxTPRT2c88PqNf1T22TzamSPf2lcFl3K09cmMSWpWklXrHN3e/oePm6PyaTusd0fwjnDb4bC3UNmc1HNutEqL4ztKM8TPHmk/8NOy3zDF3PXmm7c1VlukMip82FeNV+wmx9O5N/8ALP8AuzGO0qt1vuxPcoZKK0o6kpn8nPVUWWRPBPA9LDw+Pxp7s1tz9obxFaeWu6U0DfdVztf2D6G3ovpVE7FTKfmovNfM15XUYt7R4a2yTPh0FpfTlv01a2UFti4WJze93rSO8VU8XJktktuWjMmjAqZMCst1tuf9omrdrO1GXWJvps6JOid31izgzTSRTVquddZ7m3j7SjuNK/57eFUX2odbxebh5mL0c/4/K1TJF47bL80ZuBbr9CyCreykuCJh0b3Ya9fFq/uPA5/ScvGtNqxuqPJimvhuqOQ8lCnPtAZAhzkRFVV5J1UDQNdbkUNkhkpLXJHVXFUwitXLIfa5e9fYepw+m5Ms9141VLTHM+8qIe+uvl1VsTZayvqX5cjUy5yr3+X4HrZMuPFXtr4hLNor7QvjbLQLNMU/w24cMl1mbhzk5pC36KfvU8HlcqcvtHhBa8y3/BTaPDsLyVEVAIjjYxF4GtblcrwtxzGx+iASAAAAAAAAAAAAAAAAAAIAoz+UD/XFpT/ln/tHrdOrutktGiabVEu9uX/72/idDeP+mn8J5+l1a3ocQpsVqGwUWoaVlJc2vkp0ej1ja5Wo5U6ZJMeW2Kd1ZidMBNtZpCVitW0taqp6zZHZNv6jJvcyxPu2iz2uls1tp7fQs4KeBvCxpFaZtO5H3GAAAFA/OWNsrHMe1HNcmFRe9B49xpcG1OkYlVXWvtHKqrl8ik3r5PO2WZ09pK1adnlltML4EmaiPj41c1cd+F7xkz5MtYi870TMyx1Xtvpitrp62tt3wied/G9z3r18h6+TWtsPos+hLBZbmy4WyjWnmY1WpwvVUVF9imZ5OW1OyZ9mdzrTZ0TkQMJAAF6AYfUenrfqOkZSXSN0kDX8fCjsZUkx5bY53UYNdrtIKzhS0Nav0myOz+JvXk5azuJI9mz2q3QWq3wUNKipDC3hYirlcEeTJbJabW8yPsNBGAMPetLWS+NVLpbKadV+esaI77U5m1b2r4kabX7MacqHK6kmrqPPRI5Mon2lnHzc1PEsxMwx67H0GfRvtwRPaxn8Cb/FOR/qZ77fd+9NshY43ZqLjcZ08FVrfwIr87NbzLG5bXZdvtMWZ6SUdqgdKif0kydov3lect58yw2ZjEaiI1ERE5IidEIx7AkABCoBq+rdC2TVUarcKZGVKJhtVEmJG+/v95vTJavgVZd9pdR2x6vs1TDcoEXLWPXgkb7+mT2ON1nLjjtt7x9pSVy2h8tLqDXmmfkZ6S4tjb8yRnbN+1CzbkdO5Hvkpqf4bTkpPmGVZvJeYm4ntMbl8XRSNIZ4nTrfTkmGP7X3eJt4r7MzFLaWNVe9sL3Kaf0nAr5vMsf2/uxNTddwNVfJMpbi6NfmNb2Lff0JIz8LB746bn+We+sfTD77Js9e7g5r77VxUEKrzih9KRff0K2fqd8nt8NZyWlbOldHWbS8HBbKVqSqmHzv5yO9/cebky3yeZaNhTkRjxI7hYq+CZA5qvmtbxeLtU1C3GogYkjmxxRSq1rGovsOv6bx+P6MbiNreKtZqs7Z7U9deYK2huEy1DqThcyV3rK1c8l8eh5HV+PixZInH8octYifZZSHjokgAAAAAAAAAAAAAAAAACFA0PX+3ztY3OkqH3FaSKCFWKjWZcuVyWsHKnDSax8s7mGApdmUt9VBUUd7mf2UjX8E0SYXHtQnx9SyUiaz4lmLzELaTkec1SgEgAAAAAAAAAAAAAAAAAAAAAAAAAAAAAAAAAAgCFRF6oAwoH5vp4pPXiY7zaimdyDII2epGxvk1EG5H6Y9qqYE4ROgACQPLkRU5gVHqXZiOsuc1XZrilJHM9XuhkZlGqvXClzFzLUhmJmG46A0VTaPoJYmTOqKqdyOmnVMZ8ERPAhzZ7Zbbk22whYSAAAAAAAAAAAAAAAAAAAEAMAAJAAAAAAAA85x3gOJAHEAVcAMgOIwJAZMgi5QwBkeeNvFw5Ti8M8wPQEKuACLkCQIzzwBIEK5ETIHlJo1XCPaq/WQD2BCqiAOLwAZAlFyAQCQIAkAAAAAIAAMAAAEgAAAAAAAAAAAAAAAAAAAAAAAAAAAAAIUCsN2Kupp7lbm09TNCjo3ZSN+MkuONsS/XR2m23yw09fV3S5tlkVUdwVConIWtqdMtgptFU9NVRTtul0csbkdwvqFVq+aGk3GP3ZqJ6ezUj6eeSFy1WFWN2Fxg2xx7j8tpamoqbbcHVNRLM5J0wsjs45DJGpGu7i3Kuo9YS/Ba2eFGRxua1r8NRceBvSImrEy3rROqotQUSMlVrK+FESaPPrfnJ7FIrV7ZZe9fyyRaVrZIJXxvREw5i4VBTyPw20mln0pSyTyvleqrlz1yqmcn1MQ2eeVkET5ZXcLGNVzl8EQ0ZUZV6oqZNWfHbJHo1kyI1qLy7JOXTy5liK/p0wvCiqY6umiqIXcUcrEe1fYpXllrm5cssGlal8Er43o5uHMXCobU8jS9Ca0lt1UlFd53yUcq+jNIuVid7fYSXp8wxC3GuRzUVFyi9FTvIWVbWaqqXbqVkDqmZ0KOfiNX5ano+BLaI7Buepb9T6ftT6yoTid6sUadXu8COtdirqeq1Jre6OgZVviiT0npGvDHE32+Kk09tIYbIm2fZxcUF8q2VKJlH45Z8smnqfwy8WTUF405e47JqZXTRSrwwVOMr7PNPwFoiY3Aye6lRNBpxj6eaSJ/wAIYnEx2FwYxx7jWNBWt+o2Vjq253FvYvRG9nOqG957fDENtXQdNhU+Nrsn/wClTTv/AIZbNbqRtDRQ0zZJJEjbhHyLly+amkj6gAAAAAAAAAAAAAAAAAAAAAAAAAAAAAAAAAAAAAAAAAAAACFAqreD+tLZj8m8mxMS/fRF2vdHp2nht9hWrgaq8MyTcOfcYtWN+8kNsst2vdXXNiuFiWjgVqqsqzcWF8MEcxEMsHu//UdF+lJ+Cm+LyPy2e/qy4/pCfgZy+SGK1XSw1u59PS1LOOGZI2vb7OEzX2pthhb3bLjoq/MnppF4Ucrqabue3PqONomLwNxvGoqbUWgK2ohwyeNGpPD3xr/AjivbYZPa7+x9L5qYyfUQ+TdO9rQ2hlvp3fL1i45dUan8egxxudktS1BpH4r0lb69rF7dnOq+q7p9nQkrfdhs21F5+EW2W1zOzLSLmPPVWL/A0yRqdjJbof2Qqva5DGP6mWiu0m6u0dSXi3Rq6oY1fhESf7xviieJJ3atqWGW261j2TorPdJVWNy8NNM5en5imt6fMCbJ/e3XfWf+yZn6B+O708jrnbabK9k2JZMe3OBi8Es7tHTxs07JUIidpNMvEvlyQ0yz7kN6I2X4y0sEssc0sLHSR54HuTKt8jI0zdzlpmP9JYSYvJLV9vLhdKGOuS2Wpa7ieivVJOHhN8kRPliG7Ut81HLUwxzabWKJ70R8iz54U8SLtj7strNRIAAAAAAAAAAAAAAAAAAAAAAAAAAAAAAAAAAAAAAAAAAAABC9AKq3f/rS2/8ATcTYmJbRth/Y+j83fiaZPLMNtwaDQd4P6ko/0pPwUkx+R+Wzv9WXH9IT8DOXyPgv397dD5xfsma/Qx8rAvlopb1bpaOtZxMfnDk6sXuVPaRVtNWVH3q21+nbhNQVD3JxpjjbybOwsRMWYWltm9sejad7lRrWq5VVe5EIb/UQ01IKzXOsKqopJ0gipv6KVzeJGIi8uXiq8yT2pX3G01el9UVlPJTVWp2SQyJwvYtMmFQ07q/EMq+tNVNpPVLFnynwaVYpk6cTF5Z/eSzEWqwsrct7ZNGzyRrxNcrVaqd6EOP6mZfvtxz0hQpjuUxf6hqO4uj/AIG994tUfyCrmoib/u1+mnsJKX+JYY7baaSfWkMs0iySOhfly9V5Gcn0stm3WsstVRU91pmOetKnDKjUyvAveaY5+GJYzavUFPRpLaqyRsbZX9pTvcuEVe9ptkj5IWnxYblehCy1Ct1oi6mpbRaaZK/K4nex2ODyX2d5v2e25Hz7trnTMef8Swzi+pifDHbPc4rn4dohnKysn3KRABKASAAAAAAAAAAAAAAAAAAAAAAAAAAAAAAAAAAAAAAAAAAAAhQNW1bo9mpKqmmfWPg7BqphqZzk3rbtYZPTFlSw2iG3tmdMkaqvG7kq5NbTuWWWMDA6u043UlHDTPqHQJFL2mWp15YwbVt2yPGkNMs01TVELKl8/bSI9Vd3csC1u4fjXaRZWarhvy1cjHRK3ESJyXCYMxbUaGzmgwup9PUuoKBaef0JW84Zk6sUzW3aPht+mJ6PSa2RlcrXORUdOxMLheuDM23Ox9WkdNQaaoX08MrpXyP4nyuTmvgLW7p2M8vQ1Gnap0JT3+4pWpVSUz3R8EiNRMO8FN631A+uq0s6r0q2xz18jkbySfHpYToYi2p2Mnpu0JZLTDQNmdKkXz3dVMTO52MjIxsjFY9qOa5MKipyVDA1G0aIhtOp/jWjqFbT8LsU2PVV3XC+BvN9xobc5iOYrXIioqYVFTqaQNJve29srpnz0UslFI5cq2P1M+OO4kjJPyxp8Me3t1ViQTalqFpu9jFXKp5jvj7Da9OaZt2n4VbRRZkf68z+b3GtrTLJqywN1FbW0T6h8CJIj+JvXkK27Z2NapduZqPiSkv9ZAjly7s8Jk2nJv4H7roW4qip/tTcv1kMd8fZht1rpH0VBDTSzvnfG3Cyv6u9qmksvrQCQAAAAAAAAAAAAAAAAAAAAAAAAAAAAAAAAAAAAAAAAAAAEAACAAAAAAAAMAMAAADAEgAIAAMAMAAADAEgQBIAAAAAAAAAAAAAAAAAAAAAAAAAAAAAAAAAAAAAAAAAAAAAAAAAAAAAAAAAAAAAAAAAAAAAAAAAAAAAAAAAAAAAAAAAAAAAAAAAAAAAAAAAAAAAAAAAAAAAAAAAAAAAAAAAAAAAAAAAAAAAAAAAAAAAAAAAAAAAAAAAAAAAAAAAAAAAAAAAAAAAAAAAAAAAAAAAAAAAAAAAAAAAAAAAAAAAAAAAAAAAAAAAAAAAAAAAAAAAAAAAAAAAAAAAAAAAAAAAAAAAAAAAAAAAAAAAAAAAAAAAAAAAAAAAAAAAAAAAAAAAAAAAAAAAAAAAAAAAAAAAAAAAAAAAAAAAAAAAAAAAAAAAAAAAAAAAAAAAAAAAAAAAAAAAAAAAAAAAAAAAAAAAAAAAAAAAAAAAAAAAAAAAAAAAAAAAAAAAAAAAAAAAAAAAAAAAAAAAAAAAAAAAAAAAAAAAAAAAAAAAAAAAAAAAAAB//9k=;" parent="1" vertex="1">
          <mxGeometry x="595" y="200.5" width="157.06" height="89" as="geometry" />
        </mxCell>
        <mxCell id="qNzG1IiznAIY8dUd2jGB-118" value="Jinja&lt;br&gt;+&lt;br&gt;PicoCSS" style="text;html=1;align=center;verticalAlign=middle;whiteSpace=wrap;rounded=0;" parent="1" vertex="1">
          <mxGeometry x="510" y="504.62" width="60" height="30" as="geometry" />
        </mxCell>
        <mxCell id="qNzG1IiznAIY8dUd2jGB-119" value="API Integration" style="text;html=1;align=center;verticalAlign=middle;whiteSpace=wrap;rounded=0;" parent="1" vertex="1">
          <mxGeometry x="620" y="410" width="100" height="30" as="geometry" />
        </mxCell>
        <mxCell id="qNzG1IiznAIY8dUd2jGB-121" value="SQLAlchemy&lt;br&gt;persistance" style="text;html=1;align=center;verticalAlign=middle;whiteSpace=wrap;rounded=0;" parent="1" vertex="1">
          <mxGeometry x="745" y="504.62" width="60" height="30" as="geometry" />
        </mxCell>
        <mxCell id="qNzG1IiznAIY8dUd2jGB-124" value="&lt;b&gt;&lt;font style=&quot;font-size: 17px;&quot;&gt;Web Server&lt;/font&gt;&lt;/b&gt;" style="text;html=1;align=center;verticalAlign=middle;whiteSpace=wrap;rounded=0;" parent="1" vertex="1">
          <mxGeometry x="753.0899999999999" y="670" width="97.94" height="30" as="geometry" />
        </mxCell>
      </root>
    </mxGraphModel>
  </diagram>
</mxfile>
